<svg width="60" height="61" viewBox="0 0 60 61" fill="none" xmlns="http://www.w3.org/2000/svg">
<path d="M30 60.0891C35.9335 60.0891 41.7337 58.3296 46.6672 55.0332C51.6007 51.7367 55.4458 47.0513 57.7165 41.5695C59.9871 36.0876 60.5811 30.0556 59.4235 24.2361C58.2659 18.4167 55.4086 13.0712 51.2129 8.87565C47.0173 4.6801 41.6717 1.82294 35.8522 0.665472C30.0328 -0.491997 24.0007 0.102213 18.519 2.37296C13.0372 4.64371 8.35189 8.489 5.05554 13.4226C1.75919 18.3562 -0.0001524 24.1564 9.90151e-09 30.0899C0.000204381 38.0463 3.161 45.6767 8.78707 51.3026C14.4131 56.9285 22.0436 60.0891 30 60.0891V60.0891Z" fill="#DA1157"/>
<path d="M39.3527 35.7261C40.6654 35.7262 41.9375 35.2712 42.9524 34.4385C43.9672 33.6059 44.6619 32.4471 44.9181 31.1597C45.1743 29.8722 44.9762 28.5358 44.3576 27.378C43.7389 26.2203 42.7379 25.3129 41.5252 24.8104C40.3125 24.3079 38.963 24.2415 37.7068 24.6224C36.4506 25.0034 35.3654 25.8081 34.636 26.8995C33.9066 27.9909 33.5782 29.3014 33.7068 30.6078C33.8353 31.9142 34.4129 33.1356 35.341 34.0639C36.4049 35.128 37.848 35.7259 39.3527 35.7261V35.7261ZM39.3527 16.9652C41.5133 16.964 43.6407 17.4977 45.5448 18.5187C47.449 19.5398 49.0708 21.0164 50.2654 22.8167C51.46 24.6171 52.1903 26.6852 52.3911 28.8365C52.592 30.9877 52.2571 33.1553 51.4163 35.1456C50.5756 37.136 49.2551 38.8872 47.5729 40.2431C45.8906 41.5989 43.8988 42.5172 41.7753 42.9159C39.6518 43.3146 37.4625 43.1814 35.403 42.5282C33.3435 41.8749 31.4777 40.722 29.9723 39.1721C32.3491 36.7313 33.6791 33.4591 33.6791 30.0522C33.6791 26.6453 32.3491 23.373 29.9723 20.9322C31.1898 19.6756 32.6478 18.6768 34.2593 17.9953C35.8708 17.3138 37.603 16.9635 39.3527 16.9652V16.9652ZM20.5934 35.7261C21.9061 35.7262 23.1782 35.2712 24.193 34.4385C25.2078 33.6059 25.9025 32.4471 26.1588 31.1597C26.415 29.8722 26.2169 28.5358 25.5982 27.378C24.9795 26.2203 23.9786 25.3129 22.7658 24.8104C21.5531 24.3079 20.2037 24.2415 18.9475 24.6224C17.6913 25.0034 16.606 25.8081 15.8766 26.8995C15.1473 27.9909 14.8189 29.3014 14.9474 30.6078C15.076 31.9142 15.6535 33.1356 16.5817 34.0639C17.6456 35.128 19.0886 35.7259 20.5934 35.7261V35.7261ZM29.9738 20.9306C27.5981 23.372 26.2688 26.6441 26.2688 30.0506C26.2688 33.4572 27.5981 36.7292 29.9738 39.1706C28.1589 41.0385 25.8279 42.3223 23.2792 42.8579C20.7305 43.3935 18.0799 43.1564 15.6667 42.1771C13.2535 41.1978 11.1873 39.5207 9.73263 37.3604C8.27794 35.2002 7.50089 32.655 7.50089 30.0506C7.50089 27.4462 8.27794 24.9011 9.73263 22.7408C11.1873 20.5806 13.2535 18.9035 15.6667 17.9241C18.0799 16.9448 20.7305 16.7078 23.2792 17.2434C25.8279 17.7789 28.1589 19.0628 29.9738 20.9306V20.9306ZM26.2673 30.0522C26.2632 33.4598 27.5937 36.7335 29.9738 39.1721C32.3496 36.7308 33.6788 33.4587 33.6788 30.0522C33.6788 26.6456 32.3496 23.3736 29.9738 20.9322C27.5935 23.3716 26.263 26.6461 26.2673 30.0545V30.0522Z" fill="white"/>
</svg>
