<svg width="40" height="40" viewBox="0 0 40 40" fill="none" xmlns="http://www.w3.org/2000/svg">
<path d="M20 40C23.9556 40 27.8224 38.827 31.1114 36.6294C34.4004 34.4318 36.9638 31.3082 38.4776 27.6537C39.9913 23.9992 40.3874 19.9778 39.6157 16.0982C38.844 12.2186 36.9392 8.65492 34.1421 5.85787C31.3451 3.06082 27.7814 1.15601 23.9018 0.384303C20.0222 -0.387401 16.0008 0.00866577 12.3463 1.52242C8.6918 3.03617 5.56824 5.59962 3.37061 8.8886C1.17298 12.1776 0 16.0444 0 20C0 25.3043 2.10713 30.3914 5.85786 34.1421C9.60859 37.8929 14.6957 40 20 40Z" fill="#00ADEF"/>
<path fill-rule="evenodd" clip-rule="evenodd" d="M18.5799 33.7351C15.1928 33.3698 12.0601 31.7656 9.78397 29.2308C7.50783 26.6959 6.24878 23.4093 6.24878 20.0026C6.24878 16.5958 7.50783 13.3092 9.78397 10.7744C12.0601 8.23955 15.1928 6.63536 18.5799 6.27007V10.4827C16.3071 10.8339 14.2349 11.9868 12.738 13.7328C11.2411 15.4788 10.4182 17.7027 10.4182 20.0026C10.4182 22.3024 11.2411 24.5264 12.738 26.2724C14.2349 28.0184 16.3071 29.1712 18.5799 29.5225V33.7351ZM21.2975 6.25055C24.4721 6.54745 27.4459 7.93465 29.7133 10.1763C31.9807 12.4179 33.4018 15.3757 33.7349 18.5467H29.5311C29.2184 16.4888 28.2469 14.5879 26.7624 13.1289C25.278 11.6698 23.3605 10.7314 21.2975 10.4544V6.25055ZM33.7503 21.2715C33.4569 24.4777 32.0514 27.4804 29.7772 29.7595C27.5029 32.0385 24.5032 33.4504 21.2975 33.7505V29.5466C23.3914 29.2648 25.3343 28.3018 26.8266 26.8063C28.3189 25.3108 29.2778 23.3659 29.5552 21.2715H33.7503Z" fill="white"/>
</svg>
