<svg width="40" height="40" viewBox="0 0 40 40" fill="none" xmlns="http://www.w3.org/2000/svg">
<path d="M20 40C23.9556 40 27.8225 38.827 31.1115 36.6294C34.4004 34.4317 36.9639 31.3081 38.4776 27.6536C39.9914 23.999 40.3874 19.9776 39.6157 16.098C38.8439 12.2184 36.939 8.65472 34.1419 5.85769C31.3448 3.06066 27.7811 1.15589 23.9015 0.384241C20.0218 -0.387406 16.0005 0.00873448 12.346 1.52257C8.69146 3.0364 5.56792 5.59993 3.37036 8.88898C1.17279 12.178 -0.0001016 16.0449 6.60101e-09 20.0005C0.000136254 25.3048 2.10733 30.3917 5.85804 34.1423C9.60876 37.8929 14.6958 40 20 40V40Z" fill="#242424"/>
<path d="M27.8206 9.08788C27.8216 9.40308 27.7291 9.71149 27.5547 9.97406C27.3803 10.2366 27.1319 10.4415 26.841 10.5629C26.5501 10.6842 26.2297 10.7165 25.9205 10.6556C25.6112 10.5947 25.327 10.4435 25.1037 10.2209C24.8805 9.99843 24.7283 9.71467 24.6664 9.40561C24.6046 9.09654 24.6358 8.77607 24.7562 8.48476C24.8766 8.19346 25.0807 7.94443 25.3427 7.76921C25.6047 7.59399 25.9128 7.50046 26.228 7.50046C26.6495 7.50046 27.0538 7.66754 27.3523 7.96509C27.6508 8.26264 27.8192 8.6664 27.8206 9.08788V9.08788ZM26.6729 14.6177C26.4072 14.6169 26.1477 14.5373 25.9272 14.3891C25.7066 14.2409 25.5349 14.0307 25.4338 13.785C25.3327 13.5393 25.3066 13.2691 25.3589 13.0086C25.4112 12.7481 25.5395 12.5089 25.7276 12.3213C25.9158 12.1337 26.1553 12.006 26.4159 11.9544C26.6766 11.9028 26.9467 11.9296 27.1921 12.0314C27.4375 12.1332 27.6473 12.3054 27.7949 12.5264C27.9425 12.7473 28.0213 13.007 28.0214 13.2727C28.0206 13.6298 27.8782 13.972 27.6253 14.2241C27.3725 14.4763 27.03 14.6178 26.6729 14.6177V14.6177ZM26.2542 17.9338C25.9719 17.9332 25.6998 17.8277 25.491 17.6376C25.2822 17.4476 25.1515 17.1867 25.1244 16.9057C25.0972 16.6246 25.1756 16.3435 25.3442 16.1171C25.5129 15.8906 25.7597 15.735 26.0367 15.6804C26.3137 15.6259 26.6012 15.6763 26.8431 15.8219C27.085 15.9675 27.2641 16.1979 27.3455 16.4682C27.427 16.7386 27.405 17.0296 27.2838 17.2846C27.1626 17.5396 26.9509 17.7404 26.6899 17.848C26.5519 17.9051 26.404 17.9344 26.2547 17.9343L26.2542 17.9338ZM26.1869 19.6486C26.187 19.8745 26.1088 20.0934 25.9656 20.268C25.8224 20.4427 25.6231 20.5623 25.4015 20.6064C25.18 20.6505 24.9501 20.6165 24.7509 20.51C24.5517 20.4036 24.3955 20.2314 24.3091 20.0227C24.2226 19.8141 24.2112 19.5819 24.2768 19.3658C24.3424 19.1496 24.4808 18.9629 24.6687 18.8375C24.8565 18.712 25.082 18.6556 25.3068 18.6778C25.5315 18.7 25.7416 18.7994 25.9013 18.9592C26.0842 19.1422 26.1869 19.3904 26.1869 19.6491V19.6486ZM24.6457 21.8037C24.6451 22.003 24.5729 22.1955 24.4422 22.346C24.3116 22.4965 24.1312 22.595 23.9339 22.6237C23.7367 22.6523 23.5357 22.6091 23.3677 22.502C23.1996 22.3948 23.0756 22.2308 23.0184 22.0399C22.9611 21.849 22.9743 21.6439 23.0556 21.4619C23.137 21.28 23.281 21.1333 23.4614 21.0486C23.6418 20.9639 23.8467 20.9469 24.0386 21.0007C24.2305 21.0544 24.3968 21.1753 24.507 21.3414C24.5978 21.4784 24.6461 21.6393 24.6457 21.8037ZM22.9581 23.3326C22.9582 23.499 22.9006 23.6603 22.7951 23.7891C22.6895 23.9178 22.5426 24.0059 22.3794 24.0384C22.2161 24.0709 22.0467 24.0458 21.8999 23.9673C21.7531 23.8889 21.638 23.7619 21.5744 23.6081C21.5107 23.4543 21.5024 23.2832 21.5507 23.124C21.5991 22.9647 21.7013 22.8271 21.8397 22.7348C21.9782 22.6424 22.1444 22.6009 22.31 22.6173C22.4756 22.6338 22.6304 22.7072 22.748 22.825C22.8822 22.96 22.9574 23.1427 22.9571 23.3331L22.9581 23.3326ZM31.5508 14.0716C31.4797 14.3767 31.3051 14.6478 31.0565 14.8386C30.808 15.0294 30.5011 15.1281 30.1879 15.118C29.8748 15.1078 29.5748 14.9894 29.3392 14.7828C29.1036 14.5763 28.9469 14.2945 28.8958 13.9854C28.8447 13.6763 28.9024 13.359 29.059 13.0876C29.2156 12.8163 29.4614 12.6076 29.7546 12.4972C30.0478 12.3868 30.3703 12.3814 30.667 12.4821C30.9637 12.5828 31.2163 12.7832 31.3817 13.0492C31.5709 13.3543 31.6313 13.722 31.5497 14.0716H31.5508ZM30.9035 17.5752C30.8432 17.8336 30.6953 18.0631 30.4848 18.2245C30.2743 18.386 30.0143 18.4696 29.7492 18.4609C29.484 18.4522 29.2301 18.3518 29.0307 18.1769C28.8312 18.0019 28.6986 17.7633 28.6554 17.5015C28.6122 17.2397 28.6611 16.9711 28.7938 16.7414C28.9265 16.5116 29.1347 16.335 29.3831 16.2416C29.6314 16.1482 29.9044 16.1438 30.1556 16.2291C30.4068 16.3145 30.6206 16.4842 30.7606 16.7096C30.9205 16.968 30.9714 17.2793 30.9019 17.5752H30.9035ZM29.6983 20.3714C29.6569 20.5931 29.5396 20.7934 29.3666 20.938C29.1937 21.0825 28.9757 21.1624 28.7503 21.1638C28.5248 21.1652 28.3059 21.088 28.1312 20.9456C27.9564 20.8031 27.8367 20.6043 27.7926 20.3832C27.7485 20.162 27.7828 19.9325 27.8895 19.7339C27.9963 19.5353 28.1688 19.3801 28.3776 19.2949C28.5863 19.2097 28.8182 19.1998 29.0334 19.267C29.2486 19.3342 29.4338 19.4742 29.557 19.663C29.6932 19.8723 29.7435 20.126 29.6972 20.3714H29.6983ZM28.1447 22.5014C28.0983 22.7007 27.9794 22.8756 27.8112 22.9921C27.643 23.1086 27.4374 23.1584 27.2345 23.1318C27.0316 23.1052 26.8459 23.0041 26.7134 22.8482C26.5808 22.6922 26.5111 22.4926 26.5176 22.2881C26.5241 22.0835 26.6064 21.8887 26.7486 21.7415C26.8908 21.5943 27.0826 21.5052 27.2868 21.4916C27.491 21.478 27.6929 21.5407 27.8534 21.6677C28.0139 21.7947 28.1214 21.9769 28.155 22.1787C28.1728 22.2859 28.1693 22.3955 28.1447 22.5014V22.5014ZM26.4494 23.9876C26.4118 24.1478 26.3198 24.2901 26.189 24.3901C26.0583 24.4901 25.8969 24.5417 25.7324 24.536C25.5678 24.5304 25.4104 24.4679 25.2868 24.3592C25.1632 24.2504 25.0811 24.1022 25.0546 23.9397C25.028 23.7773 25.0586 23.6106 25.1411 23.4682C25.2237 23.3258 25.353 23.2164 25.5072 23.1586C25.6613 23.1009 25.8308 23.0984 25.9865 23.1516C26.1423 23.2047 26.2749 23.3103 26.3616 23.4502C26.4605 23.6104 26.4917 23.8033 26.4484 23.9865L26.4494 23.9876ZM24.7541 24.9262C24.7317 25.067 24.6608 25.1955 24.5536 25.2897C24.4465 25.3838 24.3099 25.4376 24.1674 25.4418C24.0248 25.446 23.8853 25.4003 23.7729 25.3126C23.6604 25.2249 23.5821 25.1007 23.5514 24.9615C23.5207 24.8222 23.5396 24.6766 23.6047 24.5498C23.6699 24.423 23.7773 24.3229 23.9084 24.2667C24.0395 24.2106 24.1861 24.202 24.3228 24.2424C24.4596 24.2828 24.578 24.3696 24.6575 24.4879C24.7439 24.6162 24.7786 24.7724 24.7546 24.9251L24.7541 24.9262ZM33.6344 18.8539C33.5513 19.0242 33.4275 19.1715 33.2741 19.2828C33.1206 19.3941 32.9421 19.4659 32.7544 19.492C32.5666 19.5181 32.3753 19.4976 32.1973 19.4324C32.0193 19.3672 31.8601 19.2592 31.7337 19.1179C31.5954 18.9619 31.5022 18.7713 31.4637 18.5664C31.4253 18.3615 31.4431 18.1501 31.5154 17.9545C31.5876 17.759 31.7116 17.5867 31.874 17.4561C32.0364 17.3254 32.2312 17.2413 32.4377 17.2126C32.6442 17.1839 32.8545 17.2118 33.0464 17.2932C33.2383 17.3746 33.4045 17.5066 33.5273 17.675C33.6501 17.8435 33.725 18.0421 33.7438 18.2497C33.7627 18.4572 33.7249 18.6661 33.6344 18.8539V18.8539ZM32.4334 21.6224C32.3274 21.8402 32.1442 22.0109 31.9194 22.1012C31.6946 22.1916 31.4443 22.195 31.217 22.111C30.9898 22.027 30.8019 21.8615 30.69 21.6466C30.578 21.4318 30.5499 21.183 30.6112 20.9486C30.6725 20.7142 30.8188 20.511 31.0216 20.3785C31.2244 20.2459 31.4692 20.1935 31.7085 20.2315C31.9477 20.2695 32.1644 20.395 32.3162 20.5838C32.468 20.7726 32.5442 21.0111 32.5299 21.253C32.5224 21.3818 32.4896 21.5078 32.4334 21.6239V21.6224ZM30.9235 23.7225C30.8504 23.8731 30.7344 23.9988 30.59 24.0836C30.4456 24.1684 30.2793 24.2085 30.1121 24.1988C29.945 24.1892 29.7844 24.1303 29.6507 24.0295C29.5169 23.9288 29.416 23.7906 29.3607 23.6326C29.3213 23.5038 29.3136 23.3675 29.3383 23.2351C29.363 23.1028 29.4194 22.9784 29.5025 22.8725C29.5857 22.7666 29.6933 22.6824 29.816 22.6271C29.9388 22.5718 30.0731 22.547 30.2075 22.5548C30.3419 22.5626 30.4724 22.6029 30.5879 22.672C30.7034 22.7412 30.8005 22.8373 30.8708 22.9521C30.9412 23.0669 30.9827 23.197 30.9918 23.3313C31.001 23.4657 30.9776 23.6002 30.9235 23.7235V23.7225ZM29.241 25.2077C29.1617 25.3718 29.0242 25.5005 28.8552 25.5688C28.6863 25.6371 28.4979 25.6401 28.3268 25.5773C28.1558 25.5144 28.0142 25.3901 27.9297 25.2287C27.8452 25.0672 27.8237 24.8801 27.8695 24.7037C27.9154 24.5272 28.0252 24.3742 28.1776 24.2743C28.33 24.1743 28.5141 24.1347 28.6942 24.163C28.8742 24.1913 29.0373 24.2856 29.1517 24.4275C29.266 24.5694 29.3235 24.7488 29.313 24.9308C29.3075 25.0274 29.283 25.122 29.241 25.2092V25.2077ZM27.5457 26.1226C27.4922 26.2594 27.3925 26.3732 27.264 26.4443C27.1355 26.5154 26.9862 26.5394 26.8418 26.5121C26.6975 26.4849 26.5672 26.4081 26.4735 26.295C26.3798 26.1819 26.3285 26.0396 26.3285 25.8927C26.3285 25.7459 26.3798 25.6036 26.4735 25.4905C26.5672 25.3774 26.6975 25.3006 26.8418 25.2733C26.9862 25.2461 27.1355 25.2701 27.264 25.3412C27.3925 25.4123 27.4922 25.5261 27.5457 25.6628C27.6047 25.8109 27.6052 25.9758 27.5473 26.1242L27.5457 26.1226ZM25.9532 26.585C25.8962 26.704 25.7969 26.7976 25.6747 26.8476C25.5525 26.8975 25.4161 26.9002 25.292 26.8551C25.168 26.81 25.0651 26.7204 25.0035 26.6037C24.9418 26.4869 24.9258 26.3515 24.9585 26.2236C24.9912 26.0957 25.0703 25.9846 25.1804 25.9118C25.2905 25.839 25.4238 25.8098 25.5543 25.8298C25.6847 25.8498 25.8031 25.9176 25.8863 26.0201C25.9695 26.1226 26.0117 26.2523 26.0045 26.3841C26.0016 26.4538 25.985 26.5222 25.9557 26.5855L25.9532 26.585ZM27.2483 32.6547C26.9281 32.4705 26.6817 32.181 26.5511 31.8354C26.4205 31.4899 26.4138 31.1097 26.5321 30.7598C26.6504 30.4099 26.8865 30.1118 27.2 29.9165C27.5135 29.7211 27.885 29.6405 28.2513 29.6885C28.6176 29.7364 28.9559 29.9099 29.2085 30.1794C29.4612 30.4488 29.6126 30.7976 29.6369 31.1662C29.6611 31.5348 29.5568 31.9004 29.3417 32.2007C29.1265 32.501 28.8139 32.7174 28.4571 32.8129C28.2551 32.8678 28.0443 32.882 27.8368 32.8549C27.6293 32.8277 27.4293 32.7597 27.2483 32.6547V32.6547ZM23.5114 30.74C23.2806 30.6076 23.0944 30.4096 22.9764 30.1711C22.8583 29.9327 22.8138 29.6645 22.8485 29.4007C22.8832 29.1369 22.9955 28.8894 23.1712 28.6895C23.3468 28.4896 23.5779 28.3465 23.8351 28.2782C24.0485 28.2209 24.2729 28.2172 24.4881 28.2673C24.7034 28.3174 24.903 28.4198 25.0692 28.5655C25.2355 28.7112 25.3632 28.8957 25.4411 29.1025C25.519 29.3094 25.5447 29.5322 25.5159 29.7514C25.4871 29.9705 25.4047 30.1792 25.2759 30.3589C25.1472 30.5386 24.9762 30.6837 24.7779 30.7815C24.5797 30.8793 24.3604 30.9266 24.1395 30.9194C23.9186 30.9122 23.7028 30.8506 23.5114 30.74V30.74ZM20.7609 28.4401C20.532 28.3085 20.3559 28.1016 20.2625 27.8547C20.169 27.6078 20.1641 27.3361 20.2485 27.086C20.3329 26.8359 20.5015 26.6228 20.7254 26.483C20.9494 26.3432 21.2149 26.2854 21.4767 26.3194C21.7384 26.3534 21.9803 26.4772 22.1611 26.6696C22.3419 26.862 22.4504 27.1111 22.468 27.3745C22.4857 27.6379 22.4115 27.8993 22.2581 28.1141C22.1046 28.3289 21.8814 28.4839 21.6265 28.5526C21.482 28.5921 21.331 28.6026 21.1824 28.5833C21.0338 28.5639 20.8905 28.5153 20.7609 28.4401ZM18.8848 25.9742C18.6888 25.8617 18.5379 25.6848 18.4578 25.4736C18.3777 25.2623 18.3734 25.0298 18.4455 24.8158C18.5177 24.6017 18.6619 24.4192 18.8535 24.2996C19.0451 24.1799 19.2723 24.1304 19.4964 24.1596C19.7204 24.1887 19.9274 24.2947 20.082 24.4593C20.2367 24.624 20.3294 24.8373 20.3444 25.0627C20.3594 25.2881 20.2958 25.5118 20.1643 25.6955C20.0328 25.8792 19.8417 26.0117 19.6235 26.0702C19.5 26.1034 19.3712 26.1119 19.2444 26.0951C19.1176 26.0784 18.9954 26.0367 18.8848 25.9726V25.9742ZM17.7813 23.5668C17.638 23.4847 17.5223 23.3617 17.449 23.2137C17.3757 23.0656 17.348 22.8991 17.3695 22.7353C17.3911 22.5715 17.4608 22.4178 17.5699 22.2938C17.679 22.1697 17.8225 22.0808 17.9821 22.0385C18.1147 22.0029 18.2539 22.0006 18.3876 22.0317C18.5212 22.0628 18.6451 22.1264 18.7483 22.2169C18.8515 22.3073 18.9308 22.4218 18.9791 22.5502C19.0275 22.6786 19.0434 22.8169 19.0256 22.953C19.0077 23.089 18.9565 23.2186 18.8766 23.3301C18.7967 23.4416 18.6905 23.5318 18.5675 23.5925C18.4444 23.6532 18.3083 23.6826 18.1712 23.6781C18.034 23.6736 17.9001 23.6354 17.7813 23.5668ZM17.2953 21.3439C17.1406 21.2547 17.0246 21.1111 16.9699 20.9411C16.9152 20.7711 16.9257 20.5868 16.9994 20.4241C17.0731 20.2614 17.2047 20.132 17.3686 20.061C17.5324 19.9899 17.7169 19.9824 17.886 20.0399C18.0551 20.0973 18.1967 20.2157 18.2834 20.3718C18.3701 20.528 18.3956 20.7108 18.3549 20.8847C18.3142 21.0586 18.2103 21.2111 18.0633 21.3126C17.9164 21.4141 17.7369 21.4573 17.5599 21.4338C17.4666 21.4216 17.3767 21.391 17.2953 21.3439V21.3439ZM21.982 33.752C21.7153 33.7512 21.4547 33.6713 21.2333 33.5225C21.0119 33.3737 20.8395 33.1626 20.738 32.9158C20.6366 32.6691 20.6105 32.3978 20.6631 32.1363C20.7157 31.8747 20.8447 31.6346 21.0337 31.4464C21.2227 31.2581 21.4633 31.13 21.725 31.0784C21.9867 31.0268 22.2579 31.0539 22.5043 31.1563C22.7506 31.2587 22.9611 31.4319 23.1091 31.6539C23.257 31.8758 23.3359 32.1367 23.3357 32.4035C23.3354 32.5809 23.3001 32.7565 23.2319 32.9203C23.1637 33.0841 23.0639 33.2329 22.9382 33.3581C22.8125 33.4833 22.6633 33.5826 22.4993 33.6502C22.3352 33.7177 22.1595 33.7524 21.982 33.752V33.752ZM18.3346 31.0806C18.1398 30.8991 18.0141 30.6556 17.9788 30.3918C17.9435 30.1279 18.0008 29.8599 18.141 29.6336C18.2812 29.4073 18.4955 29.2366 18.7475 29.1506C18.9995 29.0646 19.2735 29.0688 19.5227 29.1622C19.772 29.2557 19.9812 29.4328 20.1145 29.6632C20.2478 29.8937 20.2971 30.1632 20.2539 30.4259C20.2106 30.6886 20.0777 30.9282 19.8775 31.1038C19.6774 31.2794 19.4226 31.3801 19.1565 31.3889C19.006 31.3942 18.8558 31.3698 18.7147 31.3169C18.5737 31.264 18.4445 31.1837 18.3346 31.0806ZM16.5031 28.6456C16.3384 28.4921 16.2321 28.2863 16.2022 28.0632C16.1723 27.8401 16.2207 27.6136 16.3392 27.4222C16.4577 27.2308 16.6389 27.0864 16.8519 27.0137C17.0649 26.941 17.2965 26.9444 17.5073 27.0234C17.7181 27.1024 17.8949 27.252 18.0077 27.4468C18.1205 27.6416 18.1622 27.8695 18.1257 28.0916C18.0892 28.3137 17.9769 28.5163 17.8077 28.6648C17.6386 28.8133 17.4232 28.8986 17.1982 28.906C17.0709 28.9104 16.9439 28.8895 16.8247 28.8445C16.7055 28.7996 16.5964 28.7314 16.5036 28.644L16.5031 28.6456ZM15.4294 26.2408C15.2891 26.1095 15.1987 25.9337 15.1735 25.7432C15.1483 25.5527 15.19 25.3594 15.2914 25.1962C15.3929 25.0331 15.5477 24.9101 15.7297 24.8484C15.9116 24.7866 16.1093 24.7899 16.2891 24.8576C16.4689 24.9253 16.6197 25.0533 16.7157 25.2197C16.8117 25.3861 16.847 25.5807 16.8155 25.7703C16.7841 25.9598 16.6879 26.1326 16.5434 26.2591C16.3988 26.3857 16.2148 26.4582 16.0228 26.4643C15.9139 26.4679 15.8054 26.4499 15.7035 26.4113C15.6017 26.3727 15.5085 26.3142 15.4294 26.2392V26.2408ZM14.9835 24.0343C14.863 23.9217 14.7854 23.7708 14.7637 23.6074C14.742 23.4439 14.7778 23.278 14.8647 23.1379C14.9517 22.9978 15.0846 22.8922 15.2407 22.8392C15.3968 22.7861 15.5665 22.7888 15.7209 22.8468C15.8752 22.9049 16.0046 23.0146 16.0871 23.1574C16.1696 23.3002 16.2 23.4672 16.1731 23.6299C16.1462 23.7925 16.0638 23.9409 15.9398 24.0496C15.8158 24.1583 15.6579 24.2206 15.4931 24.2259C15.3997 24.2292 15.3066 24.214 15.2192 24.1811C15.1317 24.1482 15.0516 24.0983 14.9835 24.0343ZM15.0133 22.1017C14.9021 22.0126 14.8254 21.8875 14.7966 21.748C14.7678 21.6084 14.7886 21.4632 14.8555 21.3374C14.9224 21.2116 15.0312 21.1131 15.163 21.0589C15.2948 21.0048 15.4413 20.9983 15.5774 21.0408C15.7134 21.0832 15.8303 21.1718 15.908 21.2913C15.9856 21.4108 16.019 21.5537 16.0025 21.6952C15.986 21.8367 15.9206 21.9681 15.8175 22.0665C15.7145 22.1649 15.5803 22.2242 15.4382 22.2342C15.2854 22.245 15.1342 22.1977 15.0148 22.1017H15.0133ZM15.8568 32.8016C15.7054 32.5809 15.6351 32.3145 15.6581 32.0478C15.6811 31.7811 15.7959 31.5307 15.983 31.3392C16.17 31.1477 16.4177 31.027 16.6838 30.9977C16.9499 30.9685 17.2178 31.0324 17.4421 31.1786C17.6663 31.3249 17.8328 31.5444 17.9132 31.7997C17.9937 32.055 17.983 32.3303 17.8832 32.5787C17.7833 32.827 17.6003 33.033 17.3655 33.1616C17.1307 33.2901 16.8586 33.3332 16.5956 33.2835C16.4468 33.2559 16.3048 33.1991 16.1781 33.1164C16.0513 33.0337 15.9421 32.9267 15.8568 32.8016V32.8016ZM14.0495 30.3814C13.9213 30.1937 13.8622 29.9674 13.8822 29.7409C13.9022 29.5145 14.0002 29.302 14.1593 29.1397C14.3185 28.9774 14.529 28.8753 14.755 28.8509C14.981 28.8264 15.2085 28.8811 15.3987 29.0056C15.5888 29.1301 15.73 29.3168 15.7979 29.5337C15.8659 29.7506 15.8566 29.9844 15.7715 30.1951C15.6864 30.4059 15.5308 30.5807 15.3313 30.6896C15.1318 30.7985 14.9006 30.8349 14.6773 30.7924C14.551 30.7685 14.4307 30.7199 14.3232 30.6494C14.2157 30.5789 14.1233 30.4878 14.0511 30.3814H14.0495ZM12.98 28.028C12.9175 27.9364 12.8738 27.8334 12.8512 27.7248C12.8287 27.6162 12.8278 27.5043 12.8486 27.3954C12.8694 27.2865 12.9115 27.1827 12.9725 27.0901C13.0335 26.9975 13.1121 26.9179 13.204 26.8557C13.342 26.7619 13.5049 26.7112 13.6718 26.7099C13.8387 26.7086 14.0023 26.7569 14.1418 26.8485C14.2813 26.9402 14.3905 27.0712 14.4556 27.225C14.5207 27.3787 14.5387 27.5483 14.5073 27.7123C14.476 27.8763 14.3967 28.0273 14.2796 28.1462C14.1624 28.2652 14.0126 28.3467 13.8491 28.3805C13.6856 28.4143 13.5158 28.3988 13.3611 28.3361C13.2064 28.2734 13.0737 28.1662 12.98 28.028V28.028ZM12.5299 25.8355C12.4336 25.6945 12.3891 25.5244 12.404 25.3543C12.419 25.1842 12.4926 25.0246 12.6121 24.9026C12.7317 24.7807 12.8898 24.704 13.0596 24.6856C13.2294 24.6673 13.4003 24.7084 13.5431 24.802C13.686 24.8955 13.792 25.0358 13.843 25.1987C13.894 25.3617 13.8868 25.5373 13.8228 25.6957C13.7588 25.854 13.6418 25.9852 13.4919 26.0669C13.3419 26.1486 13.1683 26.1757 13.0005 26.1437C12.9053 26.1261 12.8146 26.0898 12.7335 26.0369C12.6525 25.984 12.5828 25.9155 12.5284 25.8355H12.5299ZM12.5813 23.9156C12.5349 23.8478 12.5023 23.7714 12.4854 23.6909C12.4686 23.6104 12.4678 23.5273 12.4831 23.4465C12.4984 23.3657 12.5296 23.2887 12.5747 23.22C12.6199 23.1512 12.6781 23.0921 12.7462 23.0459C12.8456 22.9837 12.9611 22.9517 13.0783 22.9541C13.1956 22.9564 13.3097 22.9929 13.4065 23.0591C13.5034 23.1253 13.5788 23.2183 13.6236 23.3267C13.6685 23.4351 13.6807 23.5542 13.6588 23.6694C13.637 23.7847 13.582 23.8911 13.5006 23.9755C13.4192 24.06 13.315 24.1189 13.2006 24.1451C13.0863 24.1712 12.9668 24.1634 12.8568 24.1227C12.7468 24.0819 12.651 24.01 12.5813 23.9156V23.9156ZM12.9738 22.3118C12.9016 22.2113 12.8666 22.0888 12.8747 21.9652C12.8829 21.8417 12.9337 21.7249 13.0185 21.6347C13.1033 21.5446 13.2168 21.4867 13.3395 21.471C13.4623 21.4552 13.5867 21.4827 13.6915 21.5486C13.7963 21.6145 13.8749 21.7147 13.9139 21.8322C13.9529 21.9497 13.9499 22.077 13.9053 22.1925C13.8608 22.308 13.7775 22.4044 13.6697 22.4652C13.5619 22.5261 13.4363 22.5476 13.3144 22.526C13.1761 22.5025 13.0527 22.4256 12.9707 22.3118H12.9738ZM7.04588 20.3843C7.38704 20.1884 7.78882 20.1265 8.17312 20.2104C8.55742 20.2944 8.89676 20.5183 9.12517 20.8385C9.35358 21.1588 9.45472 21.5525 9.40894 21.9432C9.36316 22.3339 9.17373 22.6936 8.87747 22.9524C8.58121 23.2112 8.19931 23.3505 7.80601 23.3434C7.41271 23.3362 7.03613 23.183 6.74949 22.9137C6.46285 22.6443 6.28663 22.2779 6.2551 21.8858C6.22357 21.4937 6.33899 21.1039 6.5789 20.7922C6.70638 20.627 6.86504 20.4884 7.04588 20.3843V20.3843ZM10.5834 18.1239C10.8714 17.9598 11.2101 17.9086 11.5337 17.9804C11.8573 18.0521 12.1427 18.2416 12.3344 18.512C12.526 18.7824 12.6103 19.1145 12.5708 19.4436C12.5313 19.7726 12.3709 20.0753 12.1207 20.2927C11.8705 20.5101 11.5484 20.6267 11.217 20.6198C10.8856 20.613 10.5686 20.4831 10.3276 20.2556C10.0866 20.028 9.93884 19.7189 9.91301 19.3885C9.88718 19.058 9.98514 18.7298 10.1878 18.4675C10.296 18.3282 10.4304 18.2115 10.5834 18.1239V18.1239ZM13.9596 16.9017C14.1543 16.7898 14.3778 16.7381 14.6019 16.7531C14.826 16.7682 15.0405 16.8493 15.2185 16.9863C15.3965 17.1232 15.5299 17.3099 15.6018 17.5226C15.6737 17.7354 15.681 17.9647 15.6226 18.1815C15.5643 18.3984 15.443 18.5931 15.274 18.741C15.105 18.8889 14.896 18.9835 14.6734 19.0127C14.4507 19.0418 14.2244 19.0044 14.023 18.905C13.8216 18.8056 13.6542 18.6487 13.542 18.4542C13.4672 18.3249 13.4187 18.1821 13.3992 18.034C13.3797 17.8859 13.3897 17.7355 13.4285 17.5912C13.4673 17.447 13.5342 17.3118 13.6253 17.1935C13.7165 17.0752 13.8301 16.976 13.9596 16.9017V16.9017ZM17.042 16.519C17.2507 16.4 17.4961 16.3628 17.7307 16.4147C17.9652 16.4667 18.172 16.6039 18.311 16.7999C18.4499 16.9958 18.5111 17.2364 18.4825 17.4749C18.4539 17.7134 18.3376 17.9328 18.1563 18.0903C17.975 18.2479 17.7416 18.3324 17.5014 18.3274C17.2613 18.3224 17.0315 18.2283 16.8569 18.0634C16.6823 17.8984 16.5752 17.6745 16.5566 17.435C16.5379 17.1955 16.6089 16.9576 16.7559 16.7676C16.8344 16.6663 16.9322 16.5815 17.0436 16.5179L17.042 16.519ZM19.6846 16.7758C19.864 16.6734 20.075 16.6413 20.2767 16.6858C20.4784 16.7302 20.6563 16.8481 20.7759 17.0165C20.8955 17.1849 20.9483 17.3917 20.9239 17.5968C20.8995 17.8019 20.7997 17.9906 20.6439 18.1262C20.4881 18.2618 20.2875 18.3346 20.081 18.3306C19.8745 18.3265 19.6769 18.2458 19.5266 18.1041C19.3763 17.9624 19.2841 17.77 19.2678 17.5641C19.2515 17.3582 19.3124 17.1536 19.4386 16.9901C19.5057 16.902 19.5897 16.8281 19.6857 16.7728L19.6846 16.7758ZM21.8582 17.4668C21.9605 17.4079 22.0757 17.3751 22.1936 17.3713C22.3116 17.3674 22.4287 17.3926 22.5345 17.4447C22.6404 17.4968 22.7319 17.5741 22.8008 17.6699C22.8698 17.7657 22.9141 17.8769 22.9299 17.9939C22.9473 18.1231 22.9293 18.2546 22.8778 18.3744C22.8262 18.4941 22.7431 18.5976 22.6373 18.6738C22.5315 18.75 22.407 18.7959 22.277 18.8068C22.1471 18.8177 22.0167 18.793 21.8997 18.7355C21.7827 18.6779 21.6835 18.5897 21.6128 18.4801C21.5421 18.3706 21.5025 18.2439 21.4983 18.1136C21.494 17.9833 21.5253 17.8543 21.5887 17.7403C21.6521 17.6264 21.7452 17.5319 21.8582 17.4668V17.4668ZM9.51743 14.6752C9.83748 14.5801 10.1815 14.6073 10.4825 14.7517C10.7836 14.8961 11.0202 15.1472 11.1464 15.4563C11.2726 15.7655 11.2794 16.1105 11.1654 16.4243C11.0514 16.7381 10.8248 16.9983 10.5296 17.1544C10.2344 17.3104 9.89175 17.3511 9.56822 17.2686C9.24469 17.1861 8.96341 16.9862 8.77905 16.7078C8.59468 16.4294 8.52041 16.0925 8.57066 15.7624C8.62092 15.4323 8.79211 15.1327 9.05097 14.9218C9.1888 14.8098 9.34729 14.726 9.51743 14.6752ZM12.8849 13.4839C13.138 13.4072 13.4099 13.4207 13.6541 13.522C13.8984 13.6233 14.1 13.8062 14.2246 14.0394C14.3491 14.2727 14.3889 14.5419 14.3372 14.8013C14.2856 15.0606 14.1455 15.294 13.9411 15.4617C13.7366 15.6294 13.4803 15.721 13.2158 15.7209C12.9514 15.7208 12.6952 15.629 12.4908 15.4612C12.2864 15.2933 12.1466 15.0598 12.0951 14.8005C12.0436 14.5411 12.0836 14.2719 12.2083 14.0387C12.3515 13.7715 12.5948 13.5721 12.8849 13.4844V13.4839ZM15.9159 13.1243C16.1456 13.055 16.3928 13.0737 16.6095 13.1766C16.8262 13.2795 16.9968 13.4594 17.0883 13.6811C17.1797 13.9029 17.1854 14.1508 17.1042 14.3765C17.023 14.6022 16.8607 14.7897 16.649 14.9024C16.4373 15.0151 16.1912 15.0451 15.9586 14.9864C15.726 14.9278 15.5235 14.7847 15.3905 14.585C15.2576 14.3853 15.2037 14.1434 15.2392 13.9061C15.2748 13.6689 15.3974 13.4534 15.583 13.3015C15.6817 13.2214 15.7951 13.1615 15.917 13.1253L15.9159 13.1243ZM18.5411 13.4032C18.7379 13.3441 18.9497 13.3603 19.1352 13.4488C19.3207 13.5372 19.4667 13.6915 19.5448 13.8816C19.6228 14.0717 19.6273 14.2841 19.5574 14.4773C19.4875 14.6706 19.3482 14.8309 19.1666 14.9272C18.985 15.0234 18.7741 15.0486 18.5749 14.9979C18.3758 14.9472 18.2026 14.8242 18.0891 14.6528C17.9756 14.4815 17.93 14.2741 17.961 14.0709C17.992 13.8677 18.0975 13.6834 18.257 13.5537C18.3409 13.4854 18.4374 13.4343 18.5411 13.4032V13.4032ZM20.6787 14.1224C20.8472 14.0716 21.0286 14.0852 21.1876 14.1607C21.3466 14.2361 21.4718 14.3681 21.5389 14.5307C21.6061 14.6934 21.6103 14.8753 21.5507 15.0409C21.4912 15.2065 21.3722 15.3441 21.2169 15.4268C21.0615 15.5096 20.881 15.5316 20.7103 15.4886C20.5396 15.4456 20.3911 15.3406 20.2935 15.1941C20.196 15.0476 20.1564 14.8701 20.1825 14.696C20.2086 14.522 20.2985 14.3638 20.4347 14.2524C20.5075 14.1952 20.5907 14.1528 20.6797 14.1276L20.6787 14.1224ZM22.3411 15.116C22.4759 15.075 22.6207 15.0819 22.7509 15.1357C22.8811 15.1896 22.9886 15.2868 23.0551 15.411C23.1216 15.5352 23.1429 15.6786 23.1155 15.8168C23.0881 15.955 23.0137 16.0794 22.9048 16.1688C22.796 16.2582 22.6595 16.3071 22.5186 16.3071C22.3777 16.3072 22.2412 16.2584 22.1323 16.169C22.0234 16.0797 21.9488 15.9553 21.9213 15.8172C21.8938 15.679 21.9151 15.5356 21.9815 15.4114C22.0585 15.2702 22.1881 15.1651 22.3422 15.1191L22.3411 15.116ZM12.6296 10.4852C12.9146 10.4646 13.197 10.5508 13.422 10.7269C13.6469 10.9031 13.7983 11.1566 13.8467 11.4382C13.8951 11.7198 13.8369 12.0093 13.6836 12.2504C13.5303 12.4915 13.2928 12.667 13.0173 12.7426C12.7418 12.8183 12.448 12.7888 12.1931 12.6598C11.9381 12.5308 11.7403 12.3116 11.638 12.0448C11.5358 11.7781 11.5364 11.4828 11.6398 11.2164C11.7432 10.9501 11.9421 10.7318 12.1976 10.6039C12.3324 10.5364 12.4792 10.4961 12.6296 10.4852ZM15.6385 10.1379C15.8802 10.1326 16.1153 10.2172 16.2982 10.3753C16.4811 10.5333 16.5988 10.7536 16.6286 10.9935C16.6584 11.2334 16.5981 11.4759 16.4594 11.6739C16.3207 11.8719 16.1134 12.0113 15.8778 12.0653C15.6421 12.1192 15.3948 12.0838 15.1838 11.9659C14.9728 11.8479 14.813 11.6559 14.7355 11.4269C14.6579 11.1979 14.6681 10.9483 14.764 10.7264C14.86 10.5046 15.0348 10.3261 15.2548 10.2258C15.3754 10.1708 15.506 10.1409 15.6385 10.1379V10.1379ZM18.2185 10.3948C18.4135 10.376 18.609 10.4256 18.7715 10.535C18.934 10.6445 19.0534 10.807 19.1093 10.9947C19.1653 11.1825 19.1542 11.3839 19.0781 11.5644C19.002 11.7449 18.8655 11.8934 18.692 11.9844C18.5185 12.0754 18.3187 12.1033 18.127 12.0633C17.9352 12.0233 17.7632 11.9179 17.6405 11.7652C17.5178 11.6124 17.452 11.4218 17.4544 11.2259C17.4567 11.03 17.5271 10.841 17.6534 10.6912C17.7958 10.5213 17.9993 10.4141 18.22 10.3928L18.2185 10.3948ZM20.3474 11.1048C20.5292 11.0986 20.7069 11.1601 20.8459 11.2774C20.985 11.3948 21.0755 11.5596 21.0999 11.7399C21.1243 11.9202 21.0809 12.1031 20.9781 12.2533C20.8753 12.4034 20.7204 12.51 20.5435 12.5524C20.3666 12.5948 20.1802 12.57 20.0205 12.4827C19.8608 12.3955 19.7392 12.2521 19.6793 12.0803C19.6194 11.9085 19.6253 11.7206 19.6961 11.553C19.7668 11.3854 19.8973 11.25 20.0622 11.1731C20.1516 11.1307 20.2485 11.1067 20.3474 11.1027V11.1048Z" fill="white"/>
</svg>
