<svg width="40" height="40" viewBox="0 0 40 40" fill="none" xmlns="http://www.w3.org/2000/svg">
<path d="M20 40C23.9556 40 27.8224 38.827 31.1114 36.6294C34.4004 34.4318 36.9638 31.3082 38.4776 27.6537C39.9913 23.9992 40.3874 19.9778 39.6157 16.0982C38.844 12.2186 36.9392 8.65492 34.1421 5.85787C31.3451 3.06082 27.7814 1.15601 23.9018 0.384303C20.0222 -0.387401 16.0008 0.00866577 12.3463 1.52242C8.6918 3.03617 5.56823 5.59962 3.3706 8.8886C1.17298 12.1776 0 16.0444 0 20C0 25.3043 2.10713 30.3914 5.85786 34.1421C9.60859 37.8929 14.6957 40 20 40Z" fill="#1AAB9B"/>
<path d="M9.44755 26.567V16.5108L17.0739 22.2507V26.566H19.0214V21.8469C19.0212 21.6708 18.9802 21.4973 18.9014 21.3398C18.8227 21.1824 18.7085 21.0454 18.5678 20.9396L9.32066 13.9786C9.15198 13.8516 8.95127 13.7741 8.74103 13.7548C8.53078 13.7354 8.31931 13.775 8.13029 13.8691C7.94128 13.9632 7.7822 14.108 7.67087 14.2874C7.55955 14.4668 7.50038 14.6737 7.5 14.8848V26.567H9.44755ZM30.5397 26.567V16.5108L22.9119 22.2507V26.566H20.9643V21.8469C20.9642 21.6709 21.005 21.4973 21.0836 21.3398C21.1621 21.1824 21.2763 21.0453 21.4169 20.9396L30.6692 13.9786C30.8379 13.8517 31.0385 13.7744 31.2487 13.7552C31.4588 13.736 31.6702 13.7757 31.859 13.8699C32.0478 13.9641 32.2067 14.1091 32.3178 14.2885C32.4288 14.468 32.4877 14.6748 32.4878 14.8858V26.568H30.5402L30.5397 26.567Z" fill="white"/>
</svg>
