<svg width="40" height="40" viewBox="0 0 40 40" fill="none" xmlns="http://www.w3.org/2000/svg">
<path d="M20 40C23.9556 40 27.8224 38.827 31.1114 36.6294C34.4004 34.4318 36.9638 31.3082 38.4776 27.6537C39.9913 23.9992 40.3874 19.9778 39.6157 16.0982C38.844 12.2186 36.9392 8.65492 34.1421 5.85787C31.3451 3.06082 27.7814 1.15601 23.9018 0.384303C20.0222 -0.387401 16.0008 0.00866577 12.3463 1.52242C8.6918 3.03617 5.56824 5.59962 3.37061 8.8886C1.17298 12.1776 0 16.0444 0 20C0 25.3043 2.10713 30.3914 5.85786 34.1421C9.60859 37.8929 14.6957 40 20 40Z" fill="#7F368A"/>
<path d="M31.4339 27.0191C31.4488 27.0839 31.4455 27.1515 31.4243 27.2145C31.4031 27.2775 31.3649 27.3333 31.3138 27.3759C31.2628 27.4185 31.2009 27.4461 31.1352 27.4557C31.0694 27.4652 31.0023 27.4564 30.9412 27.4301H26.8437C26.6412 27.4251 26.4433 27.3683 26.2689 27.2652C26.1359 27.1879 26.0225 27.081 25.9373 26.953C25.8522 26.8249 25.7976 26.6789 25.7777 26.5264V26.4437L21.9248 12.2365C21.8436 12.2365 21.597 12.4826 21.5138 12.4826C21.4326 12.5638 21.2677 12.6465 21.186 12.5638C21.1037 12.5155 21.0416 12.4389 21.0115 12.3482C20.9813 12.2576 20.9851 12.1591 21.0222 12.0711C21.1126 11.8765 21.2498 11.7072 21.4214 11.5784C21.593 11.4495 21.7938 11.365 22.006 11.3324C22.4674 11.264 22.934 11.2366 23.4002 11.2507H26.4338C26.6826 11.2374 26.9318 11.2653 27.1715 11.3334C27.3849 11.5286 27.5291 11.7879 27.5825 12.0721C27.7448 12.647 27.8275 13.2224 27.9935 13.7972L29.9595 21.1898L30.6972 24.1458C30.9921 25.0915 31.2383 26.0517 31.4349 27.0227L31.4339 27.0191ZM21.9253 27.0191C21.94 27.0837 21.9366 27.1511 21.9155 27.2138C21.8943 27.2766 21.8563 27.3323 21.8055 27.3748C21.7547 27.4173 21.6931 27.445 21.6276 27.4547C21.5621 27.4645 21.4951 27.456 21.4342 27.4301H17.3356C17.1331 27.4251 16.9352 27.3683 16.7608 27.2652C16.6278 27.1879 16.5144 27.081 16.4292 26.953C16.3441 26.8249 16.2895 26.6789 16.2696 26.5264V26.4437L12.4167 12.2365C12.334 12.2365 12.0879 12.4826 12.0057 12.4826C11.923 12.5638 11.7596 12.6465 11.6769 12.5638C11.595 12.5151 11.5334 12.4384 11.5036 12.3478C11.4737 12.2573 11.4776 12.159 11.5146 12.0711C11.6048 11.8765 11.7417 11.7072 11.9132 11.5784C12.0847 11.4495 12.2853 11.365 12.4973 11.3324C12.9593 11.264 13.4264 11.2366 13.8931 11.2507H16.9241C17.1729 11.2372 17.4222 11.2652 17.6619 11.3334C17.8758 11.5282 18.0201 11.7876 18.0728 12.0721C18.2367 12.647 18.3189 13.2224 18.4838 13.7972L20.4514 21.1898L21.1891 24.1458C21.4834 25.0917 21.7297 26.0519 21.9268 27.0227L21.9253 27.0191ZM14.3832 23.8982L13.3994 27.0196C13.3542 27.1818 13.2581 27.3251 13.1253 27.4286C12.9925 27.5321 12.83 27.5902 12.6617 27.5945H8.32124C8.10324 27.5945 7.89416 27.5079 7.74002 27.3537C7.58587 27.1996 7.49927 26.9905 7.49927 26.7725V26.6076L10.9413 13.6313C10.9764 13.5463 11.0326 13.4715 11.1044 13.414C11.1763 13.3565 11.2615 13.3182 11.3522 13.3025C11.4502 13.2924 11.5482 13.3212 11.6251 13.3827C11.702 13.4442 11.7516 13.5335 11.7632 13.6313L14.3832 23.8982ZM24.0557 23.6521L23.4829 25.3782C23.4002 25.5421 23.319 25.6243 23.1557 25.6243C22.9923 25.6243 22.9096 25.5416 22.8269 25.3782L19.9582 15.3569L20.5331 13.302C20.5331 13.1371 20.6954 13.0559 20.8608 13.0559C21.0263 13.0559 21.1881 13.1371 21.1881 13.302L24.0557 23.6521Z" fill="white"/>
</svg>
