<svg width="40" height="40" viewBox="0 0 40 40" fill="none" xmlns="http://www.w3.org/2000/svg">
<path d="M20 40C23.9556 40 27.8224 38.827 31.1114 36.6294C34.4004 34.4318 36.9638 31.3082 38.4776 27.6537C39.9913 23.9992 40.3874 19.9778 39.6157 16.0982C38.844 12.2186 36.9392 8.65492 34.1421 5.85787C31.3451 3.06082 27.7814 1.15601 23.9018 0.384303C20.0222 -0.387401 16.0009 0.00866577 12.3463 1.52242C8.69182 3.03617 5.56824 5.59962 3.37061 8.8886C1.17298 12.1776 0 16.0444 0 20C0 22.6264 0.517312 25.2272 1.52241 27.6537C2.5275 30.0802 4.00069 32.285 5.85786 34.1421C7.71503 35.9993 9.91983 37.4725 12.3463 38.4776C14.7729 39.4827 17.3736 40 20 40V40Z" fill="#09547D"/>
<path opacity="0.5" d="M29.1401 26.1591V10.0003L21.2502 18.0617L29.1401 26.1591Z" fill="white"/>
<path d="M11.2498 8.75037L11.6299 9.14029L22.2128 19.9841L11.2498 31.2317V8.75037Z" fill="white"/>
</svg>
