<svg width="40" height="40" viewBox="0 0 40 40" fill="none" xmlns="http://www.w3.org/2000/svg">
<path d="M20 40C23.9556 40 27.8224 38.827 31.1114 36.6294C34.4004 34.4318 36.9638 31.3082 38.4776 27.6537C39.9913 23.9992 40.3874 19.9778 39.6157 16.0982C38.844 12.2186 36.9392 8.65492 34.1421 5.85787C31.3451 3.06082 27.7814 1.15601 23.9018 0.384303C20.0222 -0.387401 16.0008 0.00866577 12.3463 1.52242C8.6918 3.03617 5.56824 5.59962 3.37061 8.8886C1.17298 12.1776 0 16.0444 0 20C0 25.3043 2.10713 30.3914 5.85786 34.1421C9.60859 37.8929 14.6957 40 20 40Z" fill="black"/>
<path d="M19.7148 19.7401L11.752 11.7773L11.5794 11.5173L8.74976 8.75037V30.644H11.6046V15.5003L17.7493 21.7313L19.7395 23.7215L21.7296 21.7313L27.8744 15.5003V30.644H30.7292V8.75037L27.8744 11.5189L19.7148 19.7401Z" fill="white"/>
</svg>
