<svg width="60" height="61" viewBox="0 0 60 61" fill="none" xmlns="http://www.w3.org/2000/svg">
  <path d="M30 60.0891C35.9335 60.0891 41.7337 58.3296 46.6672 55.0331C51.6007 51.7367 55.4458 47.0513 57.7164 41.5694C59.9871 36.0876 60.5811 30.0556 59.4235 24.2361C58.2659 18.4167 55.4086 13.0712 51.2129 8.87565C47.0173 4.6801 41.6717 1.82294 35.8522 0.665472C30.0328 -0.491997 24.0007 0.102213 18.519 2.37296C13.0372 4.64371 8.35189 8.489 5.05554 13.4226C1.75919 18.3562 -0.0001524 24.1564 9.90147e-09 30.0899C8.60171e-09 34.0295 0.775976 37.9306 2.28363 41.5703C3.79128 45.21 6.00107 48.5171 8.78684 51.3028C11.5726 54.0885 14.8798 56.2982 18.5195 57.8058C22.1593 59.3133 26.0604 60.0892 30 60.0891Z" fill="#00316D"/>
  <path d="M34.0425 37.3781C34.0179 37.3334 34.014 37.3141 34.0048 37.3087C32.8419 36.7593 31.6799 36.2083 30.5132 35.6666C30.4766 35.6514 30.4368 35.6454 30.3974 35.649C30.3579 35.6526 30.3199 35.6658 30.2866 35.6874C29.7804 36.2314 29.2849 36.7878 28.7832 37.345C29.1462 37.6124 33.7381 37.6139 34.0425 37.3781ZM23.3998 23.9474L23.2835 23.7039C23.176 23.7586 23.0784 23.8307 22.9945 23.9174C21.9203 25.5156 20.8528 27.1181 19.7919 28.7251C19.742 28.8448 19.7103 28.9713 19.6979 29.1004C19.8302 29.0933 19.9605 29.0641 20.0832 29.0141C20.9946 28.4664 21.8969 27.9052 22.7903 27.3303C22.948 27.2199 23.0563 27.0524 23.0924 26.8633C23.2157 25.9255 23.2981 24.9823 23.3998 23.9474ZM45.9012 37.5407H47.4501C47.7483 37.5407 47.8623 37.4282 47.6736 37.1415C46.6892 35.6378 45.7049 34.1354 44.7206 32.6343C44.6682 32.5519 44.548 32.5164 44.4579 32.4602C44.3961 32.5472 44.3497 32.6441 44.3207 32.7468C44.2066 34.2109 44.1034 35.6789 43.9909 37.1454C43.9701 37.4251 44.0679 37.5507 44.3531 37.5445C44.8647 37.5337 45.3803 37.5407 45.9012 37.5407ZM12.6501 37.4282C12.8025 37.4777 12.9586 37.5148 13.117 37.5391C14.7915 37.5391 16.466 37.5391 18.1382 37.5391C18.4626 37.5391 18.5451 37.4251 18.4079 37.1115C17.8829 35.9201 17.3692 34.7239 16.8667 33.5228C16.7203 33.1722 16.5855 33.1891 16.3551 33.4365C15.4627 34.4005 14.5627 35.3545 13.6665 36.3124C13.3498 36.6537 13.0438 36.9912 12.647 37.4282H12.6501ZM37.3907 28.779C37.4994 28.9909 37.5348 29.0826 37.5896 29.1643L39.8543 32.4532C40.7898 33.8125 41.7274 35.1701 42.667 36.5258C42.7488 36.6115 42.8438 36.6835 42.9483 36.7393C43.0106 36.6341 43.0585 36.5212 43.0908 36.4033C43.1286 36.0843 43.1355 35.766 43.1563 35.447C43.2573 33.9936 43.3698 32.5426 43.4561 31.0916C43.4776 30.9663 43.4731 30.8379 43.4431 30.7143C43.4131 30.5907 43.3581 30.4746 43.2815 30.3731C43.2049 30.2716 43.1083 30.1869 42.9977 30.1241C42.8872 30.0613 42.7649 30.0219 42.6385 30.0081C41.0726 29.6162 39.5058 29.2249 37.9379 28.8345C37.7554 28.8054 37.5715 28.7868 37.3869 28.779H37.3907ZM36.9931 19.1512L36.8506 19.1759C36.8321 19.4626 36.8036 19.7515 36.7943 20.042L36.5862 27.1122C36.575 27.1647 36.575 27.2189 36.5863 27.2714C36.5975 27.3238 36.6197 27.3733 36.6515 27.4165C36.6832 27.4598 36.7238 27.4958 36.7704 27.5222C36.8171 27.5487 36.8688 27.565 36.9222 27.57C38.5459 27.9637 40.1657 28.3783 41.7893 28.7775C41.937 28.7953 42.0863 28.7953 42.2339 28.7775C42.213 28.6287 42.1747 28.4828 42.1199 28.3429C40.5016 25.3992 38.8798 22.4568 37.2544 19.5157C37.1739 19.3886 37.0854 19.2669 36.9893 19.1512H36.9931ZM29.7087 33.6014C29.7511 33.4203 29.7825 33.2369 29.8027 33.052C29.8274 32.266 29.8289 31.4807 29.8644 30.6955C29.898 30.0969 29.7201 29.5056 29.3619 29.0249C27.8721 26.9591 26.3877 24.8904 24.9087 22.8185C24.8499 22.7157 24.8021 22.6069 24.7661 22.4941L24.5896 22.5989C24.5349 22.7527 24.4924 22.9107 24.4625 23.0712C24.3315 24.3466 24.219 25.6211 24.0772 26.8926C24.0561 27.0265 24.0664 27.1634 24.1072 27.2926C24.1485 27.4217 24.2198 27.5392 24.3153 27.6355C25.9937 29.5049 27.6604 31.3852 29.3349 33.2608C29.422 33.3618 29.5307 33.4442 29.7056 33.6014H29.7087ZM30.7875 33.2092L30.9 33.2862C31.011 33.2161 31.1144 33.1345 31.2083 33.0427C32.6333 31.312 34.0541 29.5771 35.4704 27.8381C35.5576 27.7278 35.6087 27.5932 35.6168 27.4528C35.6841 25.1375 35.7435 22.8218 35.7948 20.5059C35.7789 20.3726 35.7422 20.2426 35.6862 20.1206C35.5829 20.22 35.4388 20.301 35.378 20.4204C34.0679 23.1992 32.8111 26.0057 31.4348 28.749C30.7074 30.2 30.8237 31.698 30.786 33.2115L30.7875 33.2092ZM24.2198 37.5422C25.1214 37.5422 26.0252 37.5553 26.9268 37.5307C27.1322 37.5218 27.3276 37.4398 27.4778 37.2995C28.1059 36.6414 28.6946 35.944 29.3211 35.2836C29.5523 35.0401 29.5029 34.8898 29.3041 34.6725C28.2469 33.5249 27.1981 32.369 26.1578 31.2049C25.9066 30.9236 25.7625 30.9251 25.5375 31.2326C24.1103 33.1845 22.6685 35.1233 21.2345 37.0714C21.1733 37.1795 21.1241 37.2939 21.0881 37.4128C21.2068 37.475 21.3348 37.5174 21.4672 37.5384C22.385 37.5468 23.3004 37.543 24.219 37.543L24.2198 37.5422ZM25.1537 30.106C24.6551 29.5265 24.1658 28.9809 23.7027 28.4107C23.6749 28.3579 23.6353 28.3122 23.5869 28.2773C23.5385 28.2425 23.4827 28.2193 23.4238 28.2097C23.365 28.2 23.3047 28.2042 23.2477 28.2218C23.1907 28.2395 23.1386 28.2701 23.0954 28.3113C21.5281 29.2976 19.9437 30.2578 18.3802 31.2496C18.1058 31.4557 17.8556 31.6923 17.6343 31.9546C17.5396 32.0556 17.4812 32.1852 17.4682 32.3231C17.4552 32.4609 17.4884 32.5991 17.5626 32.716C18.1721 34.1092 18.7663 35.5079 19.3681 36.9049C19.5993 37.4297 19.6833 37.439 20.0339 36.9704C20.9622 35.7329 21.8869 34.493 22.808 33.2508L25.1537 30.106ZM36.0191 28.6288C35.9402 28.7723 35.8524 28.9108 35.7563 29.0433C34.2711 30.8548 32.7813 32.6636 31.2869 34.4699C31.0434 34.7642 31.169 34.8806 31.441 35.0093C33.1602 35.7968 34.8724 36.5975 36.5955 37.3812C36.8165 37.4793 37.055 37.5318 37.2967 37.5353C38.7139 37.5484 40.1333 37.5445 41.5527 37.5353C41.6885 37.5198 41.822 37.4883 41.9503 37.4413C41.9195 37.2963 41.869 37.1563 41.8001 37.0252C40.4911 35.1151 39.1793 33.2076 37.8647 31.3027C37.2875 30.4612 36.7026 29.6174 36.0183 28.6288H36.0191ZM29.9869 39.4602C23.5334 39.4602 17.0797 39.4602 10.6257 39.4602C10.1233 39.4602 9.6694 39.404 9.45209 38.8638C9.37416 38.6434 9.36789 38.4039 9.43418 38.1797C9.50047 37.9555 9.63592 37.758 9.8212 37.6154C11.7477 35.5564 13.7027 33.5205 15.5775 31.4168C16.2621 30.5742 16.8885 29.6859 17.4524 28.7582C19.3927 25.8554 21.3185 22.9418 23.2688 20.0505C23.4598 19.7501 23.7351 19.5127 24.0602 19.3678C24.2637 19.3101 24.4809 19.3258 24.6739 19.4122C24.8669 19.4985 25.0234 19.65 25.116 19.8401C26.6854 22.0826 28.261 24.3214 29.8428 26.5566C30.1672 27.0144 30.2836 26.999 30.5232 26.4796L35.3872 15.8862C35.5783 15.4701 35.8318 15.1156 36.325 15.0933C36.5566 15.0919 36.7831 15.1611 36.9744 15.2918C37.1656 15.4225 37.3125 15.6083 37.3954 15.8246C39.8366 20.2532 42.2216 24.7195 44.7584 29.0919C46.2919 31.7358 48.0681 34.231 49.7349 36.7978C49.9414 37.113 50.1495 37.4259 50.3514 37.7449C50.4907 37.9149 50.5795 38.1206 50.6077 38.3385C50.6359 38.5565 50.6023 38.778 50.5109 38.9778C50.397 39.1544 50.2348 39.2946 50.0435 39.3816C49.8522 39.4686 49.64 39.4989 49.432 39.4687C42.9503 39.461 36.4686 39.4584 29.9869 39.461V39.4602Z" fill="white"/>
</svg>
