<svg height="2156.34" viewBox="0 0 2000 2156.34" width="2000" xmlns="http://www.w3.org/2000/svg"><path d="m895.17 2144.64c-289.88-60.77-565.79-258.89-745.67-535.4-79-120.94-125.19-267.4-143.42-454-3.65-37.04-6.08-283.16-6.08-608.9v-546.34h2000l-2.43 576.12c-1.82 502.58-3.65 583.41-12.16 639.32-21.87 136.12-58.34 253.41-103.31 334.24-165.9 297.18-475.84 533-782.13 595.56-73.53 15.2-131.88 14.59-204.8-.6z" fill="#142d51"/><g fill="#0da4ef"><path d="m895.17 2144.64c-289.88-60.77-565.79-258.89-745.67-535.4-79-120.94-125.19-267.4-143.42-454-3.65-37.04-6.08-283.16-6.08-608.9v-546.34h2000l-2.43 576.12c-1.82 502.58-3.65 583.41-12.16 639.32-21.87 136.12-58.34 253.41-103.31 334.24-165.9 297.18-475.84 533-782.13 595.56-73.53 15.2-131.88 14.59-204.8-.6zm189.61-63.81c231.54-43.76 489.21-214.53 652.69-432.09 104.53-139.17 150.1-246.13 180.53-428.44 9.72-55.91 10.94-122.15 12.76-608.33l2.43-545.12h-1872.42v454.57c0 249.77 3 500.15 6.08 556.06 11.55 184.75 38.29 301.43 97.23 420.54 130.66 265 425.41 504.41 705 573.69 102.66 25.52 123.32 26.13 215.7 9.12z"/><path d="m924.34 1832.27c-139.17-30.39-272.87-106.35-389.55-221.82-127-125.19-193.86-248.55-221.82-407.17-10.33-56.52-21.27-334.28-13.37-334.28 1.83 0 225.47 165.3 496.51 367.67 334.25 249.16 496.51 367.06 503.19 364.63 6.08-1.83 25.53-16.41 43.76-32.82 30.38-27.35 32.21-31 23.09-38.29-6.08-4.25-248.56-185.35-539.05-402.91l-528.71-395-.61-210.88v-211.46h1397.75v353.06c0 282-1.82 351.87-7.29 347-4.25-3-182.31-136.13-395.62-295.35l-387.73-289.86-82.65 1.83-83.24 1.82 475.84 354.91 475.84 354.91-4.25 34c-21.27 178.67-88.73 306.9-236.4 448.49-113.65 110-246.13 183.53-381.65 211.49-51.06 10.97-92.38 10.97-144.04.03z"/></g></svg>