<svg width="138" height="32" viewBox="0 0 138 32" fill="none" xmlns="http://www.w3.org/2000/svg">
<g clip-path="url(#clip0_6_9)">
<path d="M14.5568 11.0934C14.5191 11.0801 14.4837 11.0663 14.4484 11.0553C14.399 11.0345 14.3482 11.0173 14.2963 11.0038C14.2421 10.985 14.1879 10.9657 14.1337 10.9496C14.1115 10.9417 14.0888 10.9354 14.0657 10.9308C13.9463 10.8927 13.819 10.855 13.6918 10.8224C12.078 10.3741 10.3535 10.5644 8.87626 11.3538C8.8735 11.3538 8.87075 11.3566 8.868 11.3593C8.74075 11.4163 8.61856 11.4815 8.49637 11.5463C7.5038 12.0985 6.65415 12.8752 6.01527 13.8142C5.37639 14.7533 4.96599 15.8287 4.81685 16.9546C4.93311 16.5052 5.08915 16.0669 5.28311 15.6451C5.69271 14.7521 6.27562 13.9492 6.99802 13.2832C7.72043 12.6172 8.56793 12.1012 9.49135 11.7653C10.3597 11.4557 11.281 11.3221 12.2016 11.3722C13.0807 11.4206 13.9414 11.6427 14.7341 12.0258L16.1168 8.03529C15.3018 8.87512 14.7582 9.94063 14.5568 11.0934ZM20.161 8.98055C18.9571 7.59735 17.4394 6.52256 15.7348 5.84609C14.0303 5.16963 12.1886 4.91116 10.3636 5.09231C8.53872 5.27346 6.78373 5.88897 5.24549 6.88733C3.70725 7.88569 2.43051 9.23788 1.52207 10.8308C0.613627 12.4236 0.0999133 14.2109 0.0239068 16.043C-0.0520998 17.8751 0.311813 19.6987 1.08519 21.3614C1.85857 23.024 3.01893 24.4773 4.46919 25.5996C5.91945 26.7219 7.61743 27.4806 9.42107 27.8123C11.0778 28.1148 12.7807 28.0497 14.4094 27.6218C16.0382 27.1938 17.5531 26.4133 18.847 25.3356C20.141 24.2578 21.1823 22.909 21.8976 21.3845C22.6128 19.8601 22.9844 18.1971 22.9861 16.5132C22.9886 13.7424 21.9847 11.065 20.161 8.97871V8.98055ZM1.59072 16.5132C1.59119 15.0178 1.93027 13.5418 2.58251 12.196C3.23476 10.8503 4.18325 9.66959 5.35687 8.74256C6.53049 7.81553 7.89878 7.1662 9.35914 6.84325C10.8195 6.52031 12.334 6.53212 13.7892 6.87783C13.8893 6.90492 13.9899 6.92927 14.0901 6.95637C12.5158 6.85359 10.9379 7.09124 9.46379 7.65314C9.19312 8.18726 9.03534 8.77138 9.00029 9.36913C8.99478 9.46926 8.99203 9.56985 8.99203 9.66722C8.96477 9.58577 8.94042 9.50447 8.91898 9.42333C8.7871 8.93518 8.74938 8.42639 8.80782 7.92413C8.48259 8.07295 8.16792 8.23601 7.86152 8.41193C7.04723 8.88461 6.29876 9.46249 5.63544 10.1307C5.59325 10.8396 5.72146 11.5483 6.00936 12.1976C5.60651 11.7587 5.30884 11.2339 5.13887 10.663C5.12784 10.674 5.12003 10.6846 5.11176 10.6929C4.97395 10.8527 4.84625 11.0144 4.7213 11.1783C3.89139 12.266 3.28501 13.5072 2.93713 14.8303C2.60094 16.1152 2.52163 17.4538 2.70377 18.7694C2.88247 20.0434 3.31099 21.2696 3.96473 22.3777C4.45016 23.1959 5.05508 23.937 5.75947 24.5764C4.47172 23.6623 3.42139 22.4533 2.69618 21.0506C1.97098 19.6478 1.59194 18.0919 1.59072 16.5128V16.5132ZM11.4956 26.4169C10.386 26.4167 9.2843 26.2304 8.23637 25.8657C7.73371 25.5165 7.2685 25.1163 6.84816 24.6715C6.07815 23.8527 5.47744 22.89 5.08052 21.8385C4.973 21.5513 4.8825 21.2581 4.8095 20.9603C4.61647 20.209 4.53338 19.4338 4.56282 18.6587C4.58568 18.0835 4.67117 17.5126 4.81777 16.956C4.93403 16.5065 5.09007 16.0683 5.28403 15.6465C5.69362 14.7534 6.27654 13.9506 6.99894 13.2846C7.72135 12.6185 8.56885 12.1026 9.49227 11.7667C10.3606 11.4571 11.282 11.3234 12.2025 11.3736C13.0816 11.4219 13.9423 11.6441 14.735 12.0272L16.1177 8.03667L16.199 7.79783C16.2344 7.81666 16.267 7.83319 16.2992 7.85478C18.2198 8.91813 19.7325 10.5895 20.5995 12.6062C21.4666 14.6229 21.6388 16.8705 21.089 18.9957C20.5393 21.1209 19.2988 23.0032 17.5626 24.3466C15.8263 25.69 13.6928 26.4184 11.4974 26.4173L11.4956 26.4169ZM14.5568 11.0938C14.5191 11.0805 14.4837 11.0667 14.4484 11.0557C14.399 11.035 14.3482 11.0178 14.2963 11.0043C14.2421 10.9854 14.1879 10.9662 14.1337 10.9501C14.1115 10.9422 14.0888 10.9359 14.0657 10.9312C13.9463 10.8931 13.819 10.8555 13.6918 10.8228C12.078 10.3745 10.3535 10.5648 8.87626 11.3543C8.8735 11.3543 8.87075 11.357 8.868 11.3598C8.74075 11.4167 8.61856 11.482 8.49637 11.5467C7.5038 12.099 6.65415 12.8756 6.01527 13.8147C5.37639 14.7537 4.96599 15.8292 4.81685 16.9551C4.93311 16.5056 5.08915 16.0674 5.28311 15.6456C5.69271 14.7525 6.27562 13.9497 6.99802 13.2837C7.72043 12.6176 8.56793 12.1017 9.49135 11.7658C10.3597 11.4562 11.281 11.3225 12.2016 11.3726C13.0807 11.421 13.9414 11.6432 14.7341 12.0262L16.1168 8.03575C15.3019 8.87546 14.7583 9.9408 14.5568 11.0934V11.0938Z" fill="url(#paint0_linear_6_9)"/>
<path d="M17.5096 23.4479C15.9158 23.2815 14.3843 22.7388 13.0413 21.8647C12.9556 21.7967 12.8901 21.7066 12.8516 21.6042C12.4733 20.7262 11.9245 19.9319 11.2371 19.2673C10.5497 18.6028 9.73725 18.0812 8.84685 17.7327C8.56755 16.7025 9.24007 15.5478 9.24007 15.5478C7.52113 16.014 7.17293 17.0984 7.13342 17.2316C7.55099 14.5502 9.34572 12.7584 11.881 12.5145C13.6757 12.3436 16.035 13.2356 16.363 14.7591C15.6905 14.9162 15.0152 15.0807 14.3376 15.2391C14.3399 15.2634 14.3408 15.2878 14.3404 15.3121H16.9661C17.4567 16.5945 17.0911 18.7744 17.0369 18.8447C16.481 15.7839 14.9697 17.3538 13.2108 16.4889C13.2723 17.024 13.5236 17.5193 13.9191 17.8849C14.3147 18.2505 14.8283 18.4621 15.3666 18.4814C16.0474 18.5682 16.3074 18.869 16.4374 19.5984C16.7259 20.8998 17.0837 22.1848 17.5096 23.4479Z" fill="#C6A06A"/>
<path d="M17.5087 23.4476C17.4329 23.4421 17.3571 23.4371 17.279 23.4288C15.7676 23.2256 14.3197 22.6914 13.0386 21.8644C12.9529 21.7964 12.8873 21.7064 12.8488 21.604C12.1614 20.009 10.9219 18.7153 9.35768 17.9603C9.19231 17.8762 9.02141 17.8032 8.84502 17.7306C8.56572 16.7004 9.23824 15.5457 9.23824 15.5457C7.5193 16.0119 7.1711 17.0963 7.13159 17.229C7.54915 14.5476 9.34389 12.7558 11.8791 12.5119C13.5926 12.3493 15.8214 13.1549 16.3042 14.5563C16.3286 14.6216 16.3476 14.6887 16.3612 14.757C15.6886 14.9141 15.0134 15.0785 14.3358 15.237C14.3381 15.2613 14.339 15.2857 14.3386 15.31H16.9634C17.454 16.5924 17.0883 18.7723 17.0337 18.8426C16.4778 15.7817 14.9665 17.3517 13.2081 16.4868C13.2695 17.0218 13.5208 17.5171 13.9162 17.8827C14.3117 18.2482 14.8252 18.4599 15.3634 18.4793C16.0442 18.5661 16.3042 18.8669 16.4347 19.5963C16.7091 20.846 17.0521 22.0795 17.4623 23.2915C17.4788 23.3461 17.4926 23.3962 17.5087 23.4476Z" fill="url(#paint1_linear_6_9)"/>
<path d="M20.161 8.97875C18.4399 8.02564 16.4919 7.55847 14.5256 7.62724C12.5594 7.69601 10.6488 8.29813 8.99846 9.36916C8.97136 9.38524 8.94425 9.40453 8.91715 9.42336C7.38258 10.4396 6.13207 11.8299 5.28346 13.463C4.43486 15.0962 4.0161 16.9185 4.06665 18.7582C4.1172 20.598 4.6354 22.3946 5.57241 23.9787C6.50942 25.5628 7.83438 26.8823 9.42245 27.8128C11.0791 28.1153 12.782 28.0502 14.4108 27.6223C16.0396 27.1943 17.5545 26.4138 18.8484 25.3361C20.1424 24.2583 21.1837 22.9095 21.8989 21.385C22.6142 19.8606 22.9858 18.1976 22.9875 16.5137C22.9897 13.7426 21.9853 11.065 20.161 8.97875ZM11.4956 26.4183C10.386 26.4181 9.28431 26.2318 8.23637 25.8671C7.73372 25.5179 7.26851 25.1178 6.84817 24.6729C6.07814 23.8542 5.47743 22.8914 5.08053 21.8399C4.973 21.5527 4.88251 21.2595 4.8095 20.9617C4.61647 20.2104 4.53338 19.4352 4.56282 18.6601C4.58568 18.085 4.67117 17.514 4.81777 16.9574C4.93404 16.508 5.09007 16.0697 5.28403 15.6479C5.69363 14.7549 6.27654 13.952 6.99895 13.286C7.72135 12.62 8.56885 12.104 9.49227 11.7681C10.3606 11.4585 11.282 11.3249 12.2025 11.375C13.0816 11.4234 13.9423 11.6456 14.735 12.0286L16.1177 8.03808L16.199 7.79924C16.2344 7.81807 16.267 7.8346 16.2991 7.85619C18.2197 8.91973 19.7322 10.5913 20.5991 12.6081C21.4659 14.6248 21.6379 16.8725 21.088 18.9976C20.538 21.1228 19.2973 23.0049 17.5609 24.3482C15.8246 25.6914 13.691 26.4196 11.4956 26.4183Z" fill="url(#paint2_linear_6_9)"/>
<path d="M17.4623 23.2926C17.4026 23.3386 17.3428 23.3845 17.2785 23.4304C15.767 23.2273 14.319 22.6931 13.0377 21.866C12.952 21.798 12.8864 21.708 12.848 21.6056C12.1605 20.0106 10.921 18.717 9.35678 17.9619C9.54526 17.2533 9.88364 16.5935 10.349 16.0269C10.8144 15.4604 11.396 15.0003 12.0545 14.6777C12.713 14.3552 13.4331 14.1777 14.1661 14.1573C14.899 14.1368 15.6279 14.2739 16.3033 14.5593C16.3277 14.6246 16.3467 14.6917 16.3603 14.76C15.6878 14.9171 15.0125 15.0815 14.3349 15.24C14.3372 15.2643 14.3381 15.2887 14.3377 15.313H16.9625C17.4531 16.5954 17.0875 18.7753 17.0328 18.8456C16.477 15.7848 14.9656 17.3547 13.2072 16.4898C13.2686 17.0248 13.5199 17.5201 13.9153 17.8857C14.3108 18.2512 14.8243 18.4629 15.3625 18.4823C16.0433 18.5691 16.3033 18.8699 16.4338 19.5993C16.7086 20.8484 17.0519 22.0813 17.4623 23.2926Z" fill="url(#paint3_linear_6_9)"/>
</g>
<path d="M39 10V23.5396H40.8777V10H39ZM55.1586 15.9151C56.5316 15.9151 57.3194 16.8391 57.3194 18.3524V23.5412H59.1572V18.233C59.1572 15.6385 57.8849 14.1647 55.5227 14.1647C54.8485 14.1385 54.1809 14.3027 53.6004 14.6374C53.0199 14.9722 52.5513 15.4633 52.2511 16.0515C52.044 15.5651 51.7057 15.1422 51.2721 14.8273C50.8385 14.5125 50.3256 14.3174 49.7876 14.2627C49.4481 14.2027 49.1023 14.1829 48.7579 14.2036C47.9903 14.2627 46.6376 14.7146 46.1531 15.7371V14.3613H44.3159V23.5396H46.1553V18.5868C46.1553 16.6605 47.4681 15.914 48.7804 15.914C50.0121 15.914 50.8196 16.8183 50.8196 18.3315V23.5401H52.6574V18.5868C52.6557 17.0538 53.6044 15.9151 55.1586 15.9151ZM63.9396 14.3624H62.1018V28H63.9396V22.1638C64.3062 22.676 64.8006 23.0891 65.3764 23.3642C65.9521 23.6393 66.5903 23.7673 67.2309 23.7362C67.8685 23.7476 68.5017 23.6312 69.0911 23.3942C69.6804 23.1572 70.2134 22.8046 70.6568 22.3585C71.1002 21.9123 71.4444 21.3822 71.6682 20.8009C71.892 20.2197 71.9905 19.5999 71.9576 18.98C71.9576 16.0712 69.8193 14.1647 67.2309 14.1647C66.5854 14.1444 65.9452 14.2834 65.3698 14.5687C64.7943 14.854 64.3024 15.2762 63.9396 15.7963V14.3624ZM63.9599 19.0008C63.9451 18.5995 64.0136 18.1994 64.1612 17.8244C64.3087 17.4494 64.5325 17.1072 64.8189 16.8182C65.1054 16.5292 65.4487 16.2994 65.8285 16.1424C66.2082 15.9854 66.6166 15.9045 67.0292 15.9045C67.4417 15.9045 67.8501 15.9854 68.2298 16.1424C68.6096 16.2994 68.9529 16.5292 69.2394 16.8182C69.5258 17.1072 69.7496 17.4494 69.8972 17.8244C70.0447 18.1994 70.1132 18.5995 70.0984 19.0008C70.1164 19.3961 70.0499 19.7908 69.9033 20.1599C69.7567 20.5289 69.533 20.8644 69.2465 21.1451C68.96 21.4259 68.6168 21.6458 68.2386 21.7909C67.8604 21.9361 67.4554 22.0033 67.0491 21.9885C66.6415 22.0015 66.2354 21.9332 65.8558 21.7878C65.4763 21.6424 65.1313 21.423 64.8421 21.1431C64.5528 20.8632 64.3255 20.5286 64.1739 20.16C64.0224 19.7914 63.95 19.3966 63.961 18.9997L63.9599 19.0008ZM75.6186 18.234C75.6992 17.5301 76.0539 16.883 76.6099 16.426C77.1658 15.9689 77.8806 15.7367 78.6071 15.7771C79.3198 15.7427 80.0183 15.9801 80.5541 16.4389C81.0899 16.8976 81.4209 17.5416 81.4769 18.234H75.6186ZM83.2938 18.9209C83.2938 16.0121 81.2946 14.1647 78.6088 14.1647C77.9638 14.143 77.3213 14.2517 76.7216 14.4838C76.122 14.716 75.5783 15.0665 75.1249 15.5134C74.6714 15.9603 74.318 16.4938 74.0869 17.0803C73.8559 17.6667 73.7522 18.2934 73.7825 18.9209C73.7512 19.5513 73.8537 20.1812 74.0836 20.7714C74.3135 21.3616 74.6659 21.8993 75.1187 22.3511C75.5715 22.8029 76.1151 23.159 76.7156 23.3973C77.316 23.6356 77.9605 23.751 78.6088 23.7362C79.4965 23.7787 80.3779 23.5715 81.1478 23.1393C81.9177 22.707 82.5434 22.0681 82.95 21.299C82.4436 21.0826 81.8595 20.9254 81.3745 20.7091C81.0937 21.1581 80.6948 21.526 80.2191 21.7748C79.7434 22.0235 79.2081 22.1442 78.6684 22.1243C77.9284 22.1672 77.1998 21.9322 76.6325 21.4678C76.0652 21.0033 75.7025 20.3449 75.6191 19.6279H83.2719C83.2938 19.4121 83.2938 19.1372 83.2938 18.9209ZM87.4669 20.1986C87.4669 17.7614 88.2344 15.8746 90.0514 15.8746C90.5339 15.8784 91.0096 15.9857 91.4446 16.189L91.726 14.5185C91.2183 14.2732 90.6569 14.1517 90.0902 14.1647C88.8584 14.1647 87.9519 14.7934 87.4652 16.425V14.3613H85.6274V23.5396H87.4652L87.4669 20.1986ZM100.831 23.5396H102.649V14.3613H100.831V15.7371C100.459 15.2254 99.9605 14.813 99.3817 14.5379C98.803 14.2627 98.1624 14.1336 97.519 14.1625C96.8771 14.1509 96.2395 14.2674 95.6456 14.5049C95.0517 14.7424 94.5141 15.0957 94.0659 15.5432C93.6178 15.9907 93.2686 16.5229 93.0398 17.1068C92.8111 17.6907 92.7077 18.3141 92.736 18.9384C92.7087 19.5634 92.8127 20.1873 93.0415 20.7718C93.2704 21.3564 93.6193 21.8894 94.067 22.3383C94.5147 22.7871 95.0517 23.1424 95.6452 23.3824C96.2388 23.6224 96.8764 23.742 97.519 23.734C98.165 23.7536 98.8059 23.6166 99.384 23.3352C99.962 23.0538 100.459 22.637 100.831 22.1221L100.831 23.5396ZM100.811 18.9209C100.816 19.3205 100.74 19.7172 100.587 20.0879C100.434 20.4587 100.206 20.7961 99.9179 21.0806C99.6295 21.3651 99.2859 21.591 98.9071 21.7452C98.5283 21.8994 98.1218 21.9788 97.7112 21.9788C97.3006 21.9788 96.8941 21.8994 96.5152 21.7452C96.1364 21.591 95.7929 21.3651 95.5045 21.0806C95.2161 20.7961 94.9887 20.4587 94.8354 20.0879C94.6821 19.7172 94.606 19.3205 94.6115 18.9209C94.5974 18.524 94.667 18.1286 94.816 17.759C94.965 17.3893 95.1903 17.0533 95.4778 16.7717C95.7654 16.49 96.1092 16.2687 96.4881 16.1214C96.8669 15.9741 97.2727 15.9039 97.6805 15.9151C98.0917 15.9017 98.5014 15.97 98.8847 16.1158C99.2679 16.2616 99.6166 16.4818 99.9095 16.763C100.202 17.0443 100.433 17.3807 100.588 17.7517C100.743 18.1226 100.819 18.5205 100.811 18.9209ZM108.268 14.3607V10.9021H106.431V14.3613H104.733V15.8746H106.429V23.5423H108.267V15.8746H110.266V14.3613L108.268 14.3607ZM116.513 23.7362C117.167 23.7535 117.818 23.6409 118.427 23.405C119.035 23.1692 119.588 22.8151 120.05 22.3645C120.514 21.9138 120.877 21.376 121.12 20.7839C121.362 20.1919 121.478 19.5579 121.46 18.9209C121.44 17.6589 120.911 16.4551 119.988 15.5695C119.064 14.6838 117.819 14.1874 116.523 14.1874C115.226 14.1874 113.981 14.6838 113.058 15.5695C112.134 16.4551 111.605 17.6589 111.586 18.9209C111.565 19.5568 111.679 20.1901 111.919 20.7819C112.159 21.3736 112.521 21.9114 112.983 22.3622C113.444 22.8131 113.995 23.1675 114.602 23.4037C115.209 23.64 115.859 23.7531 116.513 23.7362ZM116.513 22.0066C116.096 22.018 115.681 21.9455 115.295 21.7937C114.908 21.6418 114.558 21.4139 114.266 21.1243C113.974 20.8346 113.747 20.4894 113.598 20.1102C113.45 19.7311 113.383 19.3262 113.403 18.9209C113.414 18.1251 113.747 17.3656 114.329 16.8067C114.911 16.2478 115.695 15.9345 116.513 15.9345C117.33 15.9345 118.115 16.2478 118.697 16.8067C119.279 17.3656 119.612 18.1251 119.623 18.9209C119.639 19.3254 119.57 19.7289 119.421 20.1067C119.271 20.4844 119.043 20.8283 118.752 21.1173C118.461 21.4064 118.112 21.6343 117.727 21.7872C117.342 21.9402 116.928 22.0148 116.513 22.0066ZM125.741 20.1992C125.741 17.7619 126.508 15.8751 128.325 15.8751C128.808 15.8789 129.284 15.9863 129.719 16.1895L130 14.519C129.493 14.2731 128.933 14.1507 128.366 14.1625C127.135 14.1625 126.228 14.7912 125.741 16.4228V14.3613H123.904V23.5396H125.741L125.741 20.1992Z" fill="white"/>
<defs>
<linearGradient id="paint0_linear_6_9" x1="0.0140381" y1="16.5177" x2="22.9861" y2="16.5177" gradientUnits="userSpaceOnUse">
<stop stop-color="#ED3439"/>
<stop offset="1" stop-color="#E52E2E"/>
</linearGradient>
<linearGradient id="paint1_linear_6_9" x1="8.25231" y1="20.588" x2="17.9291" y2="16.8781" gradientUnits="userSpaceOnUse">
<stop offset="0.002" stop-color="#EDCA97"/>
<stop offset="1" stop-color="#A37D4A"/>
</linearGradient>
<linearGradient id="paint2_linear_6_9" x1="6.88238" y1="19.5017" x2="25.3102" y2="15.2678" gradientUnits="userSpaceOnUse">
<stop stop-color="#CB2027"/>
<stop offset="1" stop-color="#89191C"/>
</linearGradient>
<linearGradient id="paint3_linear_6_9" x1="12.1856" y1="16.2886" x2="19.1029" y2="20.3823" gradientUnits="userSpaceOnUse">
<stop offset="0.002" stop-color="#A37D4A"/>
<stop offset="0.563" stop-color="#C6A06A"/>
</linearGradient>
<clipPath id="clip0_6_9">
<rect width="22.9735" height="22.9636" fill="white" transform="translate(0.0140381 5.03613)"/>
</clipPath>
</defs>
</svg>
