<svg width="32" height="32" viewBox="0 0 32 32" fill="none" xmlns="http://www.w3.org/2000/svg">
<g clip-path="url(#clip0_3237_2513)">
<path d="M18.5568 11.0934C18.5191 11.0801 18.4837 11.0663 18.4484 11.0553C18.399 11.0345 18.3482 11.0173 18.2963 11.0038C18.2421 10.985 18.1879 10.9657 18.1337 10.9496C18.1115 10.9417 18.0888 10.9354 18.0657 10.9308C17.9463 10.8927 17.819 10.855 17.6918 10.8224C16.078 10.3741 14.3535 10.5644 12.8763 11.3538C12.8735 11.3538 12.8708 11.3566 12.868 11.3593C12.7408 11.4163 12.6186 11.4815 12.4964 11.5463C11.5038 12.0985 10.6542 12.8752 10.0153 13.8142C9.37639 14.7533 8.96599 15.8287 8.81685 16.9546C8.93311 16.5052 9.08915 16.0669 9.28311 15.6451C9.69271 14.7521 10.2756 13.9492 10.998 13.2832C11.7204 12.6172 12.5679 12.1012 13.4914 11.7653C14.3597 11.4557 15.281 11.3221 16.2016 11.3722C17.0807 11.4206 17.9414 11.6427 18.7341 12.0258L20.1168 8.03529C19.3018 8.87512 18.7582 9.94063 18.5568 11.0934ZM24.161 8.98055C22.9571 7.59735 21.4394 6.52256 19.7348 5.84609C18.0303 5.16963 16.1886 4.91116 14.3636 5.09231C12.5387 5.27346 10.7837 5.88897 9.24549 6.88733C7.70725 7.88569 6.43051 9.23788 5.52207 10.8308C4.61363 12.4236 4.09991 14.2109 4.02391 16.043C3.9479 17.8751 4.31181 19.6987 5.08519 21.3614C5.85857 23.024 7.01893 24.4773 8.46919 25.5996C9.91945 26.7219 11.6174 27.4806 13.4211 27.8123C15.0778 28.1148 16.7807 28.0497 18.4094 27.6218C20.0382 27.1938 21.5531 26.4133 22.847 25.3356C24.141 24.2578 25.1823 22.909 25.8976 21.3845C26.6128 19.8601 26.9844 18.1971 26.9861 16.5132C26.9886 13.7424 25.9847 11.065 24.161 8.97871V8.98055ZM5.59072 16.5132C5.59119 15.0178 5.93027 13.5418 6.58251 12.196C7.23476 10.8503 8.18325 9.66959 9.35687 8.74256C10.5305 7.81553 11.8988 7.1662 13.3591 6.84325C14.8195 6.52031 16.334 6.53212 17.7892 6.87783C17.8893 6.90492 17.9899 6.92927 18.0901 6.95637C16.5158 6.85359 14.9379 7.09124 13.4638 7.65314C13.1931 8.18726 13.0353 8.77138 13.0003 9.36913C12.9948 9.46926 12.992 9.56985 12.992 9.66722C12.9648 9.58577 12.9404 9.50447 12.919 9.42333C12.7871 8.93518 12.7494 8.42639 12.8078 7.92413C12.4826 8.07295 12.1679 8.23601 11.8615 8.41193C11.0472 8.88461 10.2988 9.46249 9.63544 10.1307C9.59325 10.8396 9.72146 11.5483 10.0094 12.1976C9.60651 11.7587 9.30884 11.2339 9.13887 10.663C9.12784 10.674 9.12003 10.6846 9.11176 10.6929C8.97395 10.8527 8.84625 11.0144 8.7213 11.1783C7.89139 12.266 7.28501 13.5072 6.93713 14.8303C6.60094 16.1152 6.52163 17.4538 6.70377 18.7694C6.88247 20.0434 7.31099 21.2696 7.96473 22.3777C8.45016 23.1959 9.05508 23.937 9.75947 24.5764C8.47172 23.6623 7.42139 22.4533 6.69618 21.0506C5.97098 19.6478 5.59194 18.0919 5.59072 16.5128V16.5132ZM15.4956 26.4169C14.386 26.4167 13.2843 26.2304 12.2364 25.8657C11.7337 25.5165 11.2685 25.1163 10.8482 24.6715C10.0781 23.8527 9.47744 22.89 9.08052 21.8385C8.973 21.5513 8.8825 21.2581 8.8095 20.9603C8.61647 20.209 8.53338 19.4338 8.56282 18.6587C8.58568 18.0835 8.67117 17.5126 8.81777 16.956C8.93403 16.5065 9.09007 16.0683 9.28403 15.6465C9.69362 14.7534 10.2765 13.9506 10.9989 13.2846C11.7213 12.6185 12.5689 12.1026 13.4923 11.7667C14.3606 11.4571 15.282 11.3234 16.2025 11.3736C17.0816 11.4219 17.9423 11.6441 18.735 12.0272L20.1177 8.03667L20.199 7.79783C20.2344 7.81666 20.267 7.83319 20.2992 7.85478C22.2198 8.91813 23.7325 10.5895 24.5995 12.6062C25.4666 14.6229 25.6388 16.8705 25.089 18.9957C24.5393 21.1209 23.2988 23.0032 21.5626 24.3466C19.8263 25.69 17.6928 26.4184 15.4974 26.4173L15.4956 26.4169ZM18.5568 11.0938C18.5191 11.0805 18.4837 11.0667 18.4484 11.0557C18.399 11.035 18.3482 11.0178 18.2963 11.0043C18.2421 10.9854 18.1879 10.9662 18.1337 10.9501C18.1115 10.9422 18.0888 10.9359 18.0657 10.9312C17.9463 10.8931 17.819 10.8555 17.6918 10.8228C16.078 10.3745 14.3535 10.5648 12.8763 11.3543C12.8735 11.3543 12.8708 11.357 12.868 11.3598C12.7408 11.4167 12.6186 11.482 12.4964 11.5467C11.5038 12.099 10.6542 12.8756 10.0153 13.8147C9.37639 14.7537 8.96599 15.8292 8.81685 16.9551C8.93311 16.5056 9.08915 16.0674 9.28311 15.6456C9.69271 14.7525 10.2756 13.9497 10.998 13.2837C11.7204 12.6176 12.5679 12.1017 13.4914 11.7658C14.3597 11.4562 15.281 11.3225 16.2016 11.3726C17.0807 11.421 17.9414 11.6432 18.7341 12.0262L20.1168 8.03575C19.3019 8.87546 18.7583 9.9408 18.5568 11.0934V11.0938Z" fill="url(#paint0_linear_3237_2513)"/>
<path d="M21.5096 23.4479C19.9158 23.2815 18.3843 22.7388 17.0413 21.8647C16.9556 21.7967 16.8901 21.7066 16.8516 21.6042C16.4733 20.7262 15.9245 19.9319 15.2371 19.2673C14.5497 18.6028 13.7373 18.0812 12.8468 17.7327C12.5676 16.7025 13.2401 15.5478 13.2401 15.5478C11.5211 16.014 11.1729 17.0984 11.1334 17.2316C11.551 14.5502 13.3457 12.7584 15.881 12.5145C17.6757 12.3436 20.035 13.2356 20.363 14.7591C19.6905 14.9162 19.0152 15.0807 18.3376 15.2391C18.3399 15.2634 18.3408 15.2878 18.3404 15.3121H20.9661C21.4567 16.5945 21.0911 18.7744 21.0369 18.8447C20.481 15.7839 18.9697 17.3538 17.2108 16.4889C17.2723 17.024 17.5236 17.5193 17.9191 17.8849C18.3147 18.2505 18.8283 18.4621 19.3666 18.4814C20.0474 18.5682 20.3074 18.869 20.4374 19.5984C20.7259 20.8998 21.0837 22.1848 21.5096 23.4479Z" fill="#C6A06A"/>
<path d="M21.5087 23.4476C21.4329 23.4421 21.3571 23.4371 21.279 23.4288C19.7676 23.2256 18.3197 22.6914 17.0386 21.8644C16.9529 21.7964 16.8873 21.7064 16.8488 21.604C16.1614 20.009 14.9219 18.7153 13.3577 17.9603C13.1923 17.8762 13.0214 17.8032 12.845 17.7306C12.5657 16.7004 13.2382 15.5457 13.2382 15.5457C11.5193 16.0119 11.1711 17.0963 11.1316 17.229C11.5492 14.5476 13.3439 12.7558 15.8791 12.5119C17.5926 12.3493 19.8214 13.1549 20.3042 14.5563C20.3286 14.6216 20.3476 14.6887 20.3612 14.757C19.6886 14.9141 19.0134 15.0785 18.3358 15.237C18.3381 15.2613 18.339 15.2857 18.3386 15.31H20.9634C21.454 16.5924 21.0883 18.7723 21.0337 18.8426C20.4778 15.7817 18.9665 17.3517 17.2081 16.4868C17.2695 17.0218 17.5208 17.5171 17.9162 17.8827C18.3117 18.2482 18.8252 18.4599 19.3634 18.4793C20.0442 18.5661 20.3042 18.8669 20.4347 19.5963C20.7091 20.846 21.0521 22.0795 21.4623 23.2915C21.4788 23.3461 21.4926 23.3962 21.5087 23.4476Z" fill="url(#paint1_linear_3237_2513)"/>
<path d="M24.161 8.97875C22.4399 8.02564 20.4919 7.55847 18.5256 7.62724C16.5594 7.69601 14.6488 8.29813 12.9985 9.36916C12.9714 9.38524 12.9443 9.40453 12.9171 9.42336C11.3826 10.4396 10.1321 11.8299 9.28346 13.463C8.43486 15.0962 8.0161 16.9185 8.06665 18.7582C8.1172 20.598 8.6354 22.3946 9.57241 23.9787C10.5094 25.5628 11.8344 26.8823 13.4224 27.8128C15.0791 28.1153 16.782 28.0502 18.4108 27.6223C20.0396 27.1943 21.5545 26.4138 22.8484 25.3361C24.1424 24.2583 25.1837 22.9095 25.8989 21.385C26.6142 19.8606 26.9858 18.1976 26.9875 16.5137C26.9897 13.7426 25.9853 11.065 24.161 8.97875ZM15.4956 26.4183C14.386 26.4181 13.2843 26.2318 12.2364 25.8671C11.7337 25.5179 11.2685 25.1178 10.8482 24.6729C10.0781 23.8542 9.47743 22.8914 9.08053 21.8399C8.973 21.5527 8.88251 21.2595 8.8095 20.9617C8.61647 20.2104 8.53338 19.4352 8.56282 18.6601C8.58568 18.085 8.67117 17.514 8.81777 16.9574C8.93404 16.508 9.09007 16.0697 9.28403 15.6479C9.69363 14.7549 10.2765 13.952 10.9989 13.286C11.7214 12.62 12.5689 12.104 13.4923 11.7681C14.3606 11.4585 15.282 11.3249 16.2025 11.375C17.0816 11.4234 17.9423 11.6456 18.735 12.0286L20.1177 8.03808L20.199 7.79924C20.2344 7.81807 20.267 7.8346 20.2991 7.85619C22.2197 8.91973 23.7322 10.5913 24.5991 12.6081C25.4659 14.6248 25.6379 16.8725 25.088 18.9976C24.538 21.1228 23.2973 23.0049 21.5609 24.3482C19.8246 25.6914 17.691 26.4196 15.4956 26.4183Z" fill="url(#paint2_linear_3237_2513)"/>
<path d="M21.4623 23.2926C21.4026 23.3386 21.3428 23.3845 21.2785 23.4304C19.767 23.2273 18.319 22.6931 17.0377 21.866C16.952 21.798 16.8864 21.708 16.848 21.6056C16.1605 20.0106 14.921 18.717 13.3568 17.9619C13.5453 17.2533 13.8836 16.5935 14.349 16.0269C14.8144 15.4604 15.396 15.0003 16.0545 14.6777C16.713 14.3552 17.4331 14.1777 18.1661 14.1573C18.899 14.1368 19.6279 14.2739 20.3033 14.5593C20.3277 14.6246 20.3467 14.6917 20.3603 14.76C19.6878 14.9171 19.0125 15.0815 18.3349 15.24C18.3372 15.2643 18.3381 15.2887 18.3377 15.313H20.9625C21.4531 16.5954 21.0875 18.7753 21.0328 18.8456C20.477 15.7848 18.9656 17.3547 17.2072 16.4898C17.2686 17.0248 17.5199 17.5201 17.9153 17.8857C18.3108 18.2512 18.8243 18.4629 19.3625 18.4823C20.0433 18.5691 20.3033 18.8699 20.4338 19.5993C20.7086 20.8484 21.0519 22.0813 21.4623 23.2926Z" fill="url(#paint3_linear_3237_2513)"/>
</g>
<defs>
<linearGradient id="paint0_linear_3237_2513" x1="4.01404" y1="16.5177" x2="26.9861" y2="16.5177" gradientUnits="userSpaceOnUse">
<stop stop-color="#ED3439"/>
<stop offset="1" stop-color="#E52E2E"/>
</linearGradient>
<linearGradient id="paint1_linear_3237_2513" x1="12.2523" y1="20.588" x2="21.9291" y2="16.8781" gradientUnits="userSpaceOnUse">
<stop offset="0.002" stop-color="#EDCA97"/>
<stop offset="1" stop-color="#A37D4A"/>
</linearGradient>
<linearGradient id="paint2_linear_3237_2513" x1="10.8824" y1="19.5017" x2="29.3102" y2="15.2678" gradientUnits="userSpaceOnUse">
<stop stop-color="#CB2027"/>
<stop offset="1" stop-color="#89191C"/>
</linearGradient>
<linearGradient id="paint3_linear_3237_2513" x1="16.1856" y1="16.2886" x2="23.1029" y2="20.3823" gradientUnits="userSpaceOnUse">
<stop offset="0.002" stop-color="#A37D4A"/>
<stop offset="0.563" stop-color="#C6A06A"/>
</linearGradient>
<clipPath id="clip0_3237_2513">
<rect width="22.9735" height="22.9636" fill="white" transform="translate(4.01404 5.03613)"/>
</clipPath>
</defs>
</svg>
